<?xml version="1.0" standalone="no"?><!DOCTYPE svg PUBLIC "-//W3C//DTD SVG 1.1//EN" "http://www.w3.org/Graphics/SVG/1.1/DTD/svg11.dtd"><svg t="1500363703427" class="icon" style="" viewBox="0 0 1024 1024" version="1.1" xmlns="http://www.w3.org/2000/svg" p-id="2640" xmlns:xlink="http://www.w3.org/1999/xlink" width="32" height="32"><defs><style type="text/css"></style></defs><path d="M982.016 470.749867 41.984 470.749867c-22.4768 0-40.7552 15.957333-40.7552 35.601067 0 19.643733 18.2784 35.584 40.7552 35.584L982.016 541.934933c22.4768 0 40.7552-15.957333 40.7552-35.584 0-9.472-4.2496-18.363733-11.9808-25.122133C1003.0592 474.453333 992.853333 470.749867 982.016 470.749867zM982.016 828.8768 41.984 828.8768c-22.4768 0-40.7552 16.008533-40.7552 35.6864 0 19.694933 18.2784 35.703467 40.7552 35.703467L982.016 900.266667c22.4768 0 40.7552-16.008533 40.7552-35.703467 0-9.489067-4.2496-18.414933-11.9808-25.207467C1003.0592 832.580267 992.853333 828.8768 982.016 828.8768zM41.984 194.525867 982.016 194.525867c22.4768 0 40.7552-15.906133 40.7552-35.3792 0-9.403733-4.2496-18.2784-11.9808-24.968533C1003.0592 127.453867 992.853333 123.733333 982.016 123.733333L41.984 123.733333c-22.4768 0-40.7552 15.906133-40.7552 35.413333C1.2288 178.6368 19.490133 194.525867 41.984 194.525867z" p-id="2641" fill="#8a8a8a"></path></svg>