<?xml version="1.0" encoding="UTF-8" standalone="no"?>
<svg width="190px" height="70px" viewBox="0 0 190 70" version="1.1" xmlns="http://www.w3.org/2000/svg" xmlns:xlink="http://www.w3.org/1999/xlink">
    <!-- Generator: Sketch 3.8.3 (29802) - http://www.bohemiancoding.com/sketch -->
    <title>Logo</title>
    <desc>Created with Sketch.</desc>
    <defs></defs>
    <g id="Desktop" stroke="none" stroke-width="1" fill="none" fill-rule="evenodd">
        <g id="Home">
            <g id="Logo">
                <g id="Imported-Layers" transform="translate(20.000000, 18.000000)">
                    <path d="M48.9725973,34.7002826 C62.5767799,34.7002826 62.5767799,22.0960385 62.5767799,17.3513808 C62.5767799,15.2426992 61.7138558,13.532897 58.9330073,13.532897 C56.152277,13.532897 55.2894712,15.2426992 55.2894712,17.3513808 C55.2894712,25.0140066 52.4153048,27.0630671 48.9725973,27.0630671 C45.5297715,27.0630671 42.6556051,25.0140066 42.6556051,17.3513808 C42.6556051,15.2426992 41.7927993,13.532897 39.012069,13.532897 C36.2311022,13.532897 35.3682964,15.2426992 35.3682964,17.3513808 C35.3682964,22.0960385 35.3682964,34.7002826 48.9725973,34.7002826" id="Fill-1" fill="#48B2E7"></path>
                    <path d="M74.2819618,30.8816748 C74.2819618,32.9906044 73.1593089,34.7002826 70.6381892,34.7002826 C68.1170694,34.7002826 66.9944166,32.9906044 66.9944166,30.8816748 L66.9944166,3.82195448 C66.9944166,1.71314889 68.1170694,0.00334672021 70.6381892,0.00334672021 C73.1593089,0.00334672021 74.2819618,1.71314889 74.2819618,3.82195448 L74.2819618,30.8816748" id="Fill-2" fill="#48B2E7"></path>
                    <path d="M117.613027,30.8816748 C117.613027,32.9906044 116.490493,34.7002826 113.969255,34.7002826 C111.449199,34.7002826 110.325719,32.9906044 110.325719,30.8816748 L110.325719,3.82195448 C110.325719,1.71314889 111.449199,0.00334672021 113.969255,0.00334672021 C116.490493,0.00334672021 117.613027,1.71314889 117.613027,3.82195448 L117.613027,30.8816748" id="Fill-3" fill="#48B2E7"></path>
                    <path d="M92.3037811,34.7002826 C105.9082,34.7002826 105.9082,22.0960385 105.9082,17.3513808 C105.9082,15.2426992 105.045158,13.532897 102.264428,13.532897 C99.4835791,13.532897 98.620655,15.2426992 98.620655,17.3513808 C98.620655,25.0140066 95.7463703,27.0630671 92.3037811,27.0630671 C88.8610736,27.0630671 85.9869072,25.0140066 85.9869072,17.3513808 C85.9869072,15.2426992 85.1241014,13.532897 82.3431346,13.532897 C79.562286,13.532897 78.6993619,15.2426992 78.6993619,17.3513808 C78.6993619,22.0960385 78.6993619,34.7002826 92.3037811,34.7002826" id="Fill-4" fill="#48B2E7"></path>
                    <path d="M135.635083,34.7002826 C149.239266,34.7002826 149.239266,22.0960385 149.239266,17.3513808 C149.239266,15.2426992 148.37646,13.532897 145.595493,13.532897 C142.814763,13.532897 141.951957,15.2426992 141.951957,17.3513808 C141.951957,25.0140066 139.077672,27.0630671 135.635083,27.0630671 C132.192376,27.0630671 129.318209,25.0140066 129.318209,17.3513808 C129.318209,15.2426992 128.455167,13.532897 125.674437,13.532897 C122.893706,13.532897 122.030782,15.2426992 122.030782,17.3513808 C122.030782,22.0960385 122.030782,34.7002826 135.635083,34.7002826" id="Fill-5" fill="#48B2E7"></path>
                    <path d="M82.3431346,1.36013189 C79.7821566,1.36013189 78.6993619,3.06906639 78.6993619,5.17774803 C78.6993619,7.28667757 79.7821566,8.99548813 82.3431346,8.99548813 C84.9042308,8.99548813 85.9869072,7.28667757 85.9869072,5.17774803 C85.9869072,3.06906639 84.9042308,1.36013189 82.3431346,1.36013189" id="Fill-6" fill="#292D78"></path>
                    <path d="M102.264428,1.36013189 C104.825287,1.36013189 105.9082,3.06906639 105.9082,5.17774803 C105.9082,7.28667757 104.825287,8.99548813 102.264428,8.99548813 C99.7032131,8.99548813 98.620655,7.28667757 98.620655,5.17774803 C98.620655,3.06906639 99.7032131,1.36013189 102.264428,1.36013189" id="Fill-7" fill="#292D78"></path>
                    <path d="M26.981753,13.5326491 L20.9281561,13.5326491 C18.9160859,13.5326491 17.2845018,14.709703 17.2845018,17.3516287 C17.2845018,19.9929347 18.9160859,21.1701125 20.9281561,21.1701125 L22.9324203,21.1701125 C22.0428846,24.8817492 19.6481994,27.0620755 15.3630291,27.0640587 C9.76407584,27.0640587 7.38713159,23.3478358 7.38713159,17.3516287 C7.38713159,11.3566612 9.76324792,7.63981853 15.3620829,7.64081015 C18.0157873,7.63882691 19.8926709,8.23838564 21.509116,9.65615549 C23.0516401,11.0102137 24.9837573,11.255268 26.6418347,9.17968169 C28.3000304,7.10397144 27.7298334,5.15444494 26.1874276,3.80063464 C23.3265079,1.28997471 20.3571312,0.00334672021 15.3630291,0.00334672021 C1.8326492,0.00334672021 0.0997046324,10.8720065 0.0988767173,17.3516287 C0.0997046324,23.8307551 1.8326492,34.7002826 15.3630291,34.7002826 C28.8916349,34.7013982 30.6262353,23.8326144 30.6252891,17.3516287 C30.6252891,14.709703 28.9939415,13.5326491 26.981753,13.5326491" id="Fill-8" fill="#48B2E7"></path>
                </g>
            </g>
        </g>
    </g>
</svg>