<?xml version="1.0" encoding="UTF-8" standalone="no"?>
<svg width="193px" height="65px" viewBox="0 0 193 65" version="1.1" xmlns="http://www.w3.org/2000/svg" xmlns:xlink="http://www.w3.org/1999/xlink">
    <!-- Generator: Sketch 3.8.3 (29802) - http://www.bohemiancoding.com/sketch -->
    <title>Imported Layers</title>
    <desc>Created with Sketch.</desc>
    <defs></defs>
    <g id="Desktop" stroke="none" stroke-width="1" fill="none" fill-rule="evenodd">
        <g id="Home" transform="translate(-504.000000, -4062.000000)">
            <g id="Footer" transform="translate(0.000000, 3954.000000)">
                <g id="Imported-Layers" transform="translate(504.500000, 107.947977)">
                    <path d="M68.8770872,51.1157776 C83.0103213,51.1157776 83.0103213,37.634149 83.0103213,32.5592146 C83.0103213,30.3037471 82.1138391,28.4749252 79.2248464,28.4749252 C76.3359767,28.4749252 75.4396173,30.3037471 75.4396173,32.5592146 C75.4396173,40.7552376 72.4536778,42.9469337 68.8770872,42.9469337 C65.3003737,42.9469337 62.3144342,40.7552376 62.3144342,32.5592146 C62.3144342,30.3037471 61.4180748,28.4749252 58.529205,28.4749252 C55.6400895,28.4749252 54.7437302,30.3037471 54.7437302,32.5592146 C54.7437302,37.634149 54.7437302,51.1157776 68.8770872,51.1157776" id="Fill-1" fill="#FFFFFF"></path>
                    <path d="M95.1707048,47.0313556 C95.1707048,49.2870883 94.0043932,51.1157776 91.3852299,51.1157776 C88.7660666,51.1157776 87.599755,49.2870883 87.599755,47.0313556 L87.599755,18.0880017 C87.599755,15.8324016 88.7660666,14.0035797 91.3852299,14.0035797 C94.0043932,14.0035797 95.1707048,15.8324016 95.1707048,18.0880017 L95.1707048,47.0313556" id="Fill-2" fill="#FFFFFF"></path>
                    <path d="M140.186867,47.0313556 C140.186867,49.2870883 139.020679,51.1157776 136.401392,51.1157776 C133.783335,51.1157776 132.616163,49.2870883 132.616163,47.0313556 L132.616163,18.0880017 C132.616163,15.8324016 133.783335,14.0035797 136.401392,14.0035797 C139.020679,14.0035797 140.186867,15.8324016 140.186867,18.0880017 L140.186867,47.0313556" id="Fill-3" fill="#FFFFFF"></path>
                    <path d="M113.893373,51.1157776 C128.026852,51.1157776 128.026852,37.634149 128.026852,32.5592146 C128.026852,30.3037471 127.130247,28.4749252 124.241378,28.4749252 C121.352385,28.4749252 120.455903,30.3037471 120.455903,32.5592146 C120.455903,40.7552376 117.46984,42.9469337 113.893373,42.9469337 C110.316782,42.9469337 107.330842,40.7552376 107.330842,32.5592146 C107.330842,30.3037471 106.434483,28.4749252 103.545368,28.4749252 C100.656375,28.4749252 99.7598927,30.3037471 99.7598927,32.5592146 C99.7598927,37.634149 99.7598927,51.1157776 113.893373,51.1157776" id="Fill-4" fill="#FFFFFF"></path>
                    <path d="M158.909781,51.1157776 C173.043015,51.1157776 173.043015,37.634149 173.043015,32.5592146 C173.043015,30.3037471 172.146656,28.4749252 169.25754,28.4749252 C166.36867,28.4749252 165.472311,30.3037471 165.472311,32.5592146 C165.472311,40.7552376 162.486249,42.9469337 158.909781,42.9469337 C155.33319,42.9469337 152.347251,40.7552376 152.347251,32.5592146 C152.347251,30.3037471 151.450646,28.4749252 148.561776,28.4749252 C145.672906,28.4749252 144.776424,30.3037471 144.776424,32.5592146 C144.776424,37.634149 144.776424,51.1157776 158.909781,51.1157776" id="Fill-5" fill="#FFFFFF"></path>
                    <path d="M103.545368,15.454811 C100.884796,15.454811 99.7598927,17.2827048 99.7598927,19.5381723 C99.7598927,21.7939049 100.884796,23.6216662 103.545368,23.6216662 C106.206062,23.6216662 107.330842,21.7939049 107.330842,19.5381723 C107.330842,17.2827048 106.206062,15.454811 103.545368,15.454811" id="Fill-6" fill="#292D78"></path>
                    <path d="M124.241378,15.454811 C126.901826,15.454811 128.026852,17.2827048 128.026852,19.5381723 C128.026852,21.7939049 126.901826,23.6216662 124.241378,23.6216662 C121.58056,23.6216662 120.455903,21.7939049 120.455903,19.5381723 C120.455903,17.2827048 121.58056,15.454811 124.241378,15.454811" id="Fill-7" fill="#292D78"></path>
                    <path d="M46.0310434,28.4746601 L39.7420288,28.4746601 C37.6517114,28.4746601 35.9566768,29.733649 35.9566768,32.5594798 C35.9566768,35.3846477 37.6517114,36.6437692 39.7420288,36.6437692 L41.8242366,36.6437692 C40.9001079,40.6137737 38.412296,42.945873 33.9604802,42.9479943 C28.1437899,42.9479943 25.6744089,38.9730842 25.6744089,32.5594798 C25.6744089,26.1472011 28.1429298,22.1716281 33.9594972,22.1726888 C36.7164013,22.1705675 38.6662747,22.8118616 40.3455816,24.3283228 C41.9480927,25.7766373 43.9553479,26.0387499 45.6779061,23.8186815 C47.4005871,21.5984806 46.8082159,19.5132471 45.2058276,18.0651977 C42.2336498,15.3797702 39.1487974,14.0035797 33.9604802,14.0035797 C19.9039189,14.0035797 18.103582,25.6288095 18.1027219,32.5594798 C18.103582,39.4896197 19.9039189,51.1157776 33.9604802,51.1157776 C48.0151985,51.1169708 49.8172555,39.4916084 49.8162726,32.5594798 C49.8162726,29.733649 48.1214837,28.4746601 46.0310434,28.4746601" id="Fill-8" fill="#FFFFFF"></path>
                </g>
            </g>
        </g>
    </g>
</svg>