<?xml version="1.0" encoding="UTF-8" standalone="no"?>
<svg width="300px" height="100px" viewBox="0 0 300 100" version="1.1" xmlns="http://www.w3.org/2000/svg" xmlns:xlink="http://www.w3.org/1999/xlink">
    <!-- Generator: Sketch 41.2 (35397) - http://www.bohemiancoding.com/sketch -->
    <title>Yahoo</title>
    <desc>Created with Sketch.</desc>
    <defs></defs>
    <g id="Home" stroke="none" stroke-width="1" fill="none" fill-rule="evenodd">
        <g id="Yahoo" fill="#FFFFFF">
            <g id="Page-1" transform="translate(14.000000, 1.000000)">
                <path d="M245.833472,31.0820833 C245.051528,27.4195833 244.620972,23.1473611 243.204306,19.2320833 C239.989028,10.3431944 232.480694,5.74041667 222.27375,5.75986111 C212.18625,5.77930556 204.770972,10.5918056 201.379306,19.4015278 C199.137639,25.2251389 198.859861,31.2834722 199.787639,37.3598611 C201.665417,49.6668056 208.600139,56.3723611 220.99875,57.1320833 C231.714028,57.7904167 240.495972,53.1793056 243.905694,41.9126389 C244.900139,38.6265278 245.140417,35.1140278 245.833472,31.0820833 M191.439028,31.42375 C191.464028,16.6904167 199.86125,6.46680556 214.339028,3.73625 C222.529306,2.19180556 230.590417,2.69597222 238.234861,6.27097222 C246.509861,10.1404167 251.284861,16.7223611 252.890417,25.7029167 C253.726528,30.3820833 253.626528,35.0306944 252.465417,39.5931944 C249.943194,49.5029167 243.591806,55.8140278 233.782083,58.5293056 C227.08625,60.3834722 220.265417,60.5418056 213.464028,59.0904167 C199.272361,56.06125 191.412639,46.1418056 191.439028,31.42375" id="Fill-1"></path>
                <path d="M180.1575,31.6297222 C180.211667,26.8436111 179.590833,22.1519444 177.27,17.8130556 C173.892222,11.5005556 168.363056,8.81305556 161.475556,8.77416667 C154.714444,8.73388889 148.978333,11.1894444 145.825556,17.4366667 C141.140833,26.7186111 141.079722,36.3227778 145.760278,45.6088889 C149.013056,52.0588889 154.851944,54.5852778 161.951944,54.3741667 C168.921389,54.1672222 174.236667,51.2547222 177.485278,44.9311111 C179.626944,40.7630556 180.206111,36.2811111 180.1575,31.6297222 M161.340833,56.9602778 C159.733889,56.8616667 157.876944,56.8644444 156.053333,56.6172222 C142.093611,54.7186111 133.621389,44.0866667 134.500556,29.9547222 C135.67,11.1352778 150.614444,4.48666667 165.343611,6.24916667 C183.499167,8.42 193.078333,24.9172222 186.353333,42.0269444 C182.699167,51.32 175.3825,55.6422222 165.8075,56.7102778 C164.4075,56.8672222 162.990833,56.8727778 161.340833,56.9602778" id="Fill-3"></path>
                <path d="M96.5983333,33.2898611 L96.5983333,55.8120833 L89.1941667,55.8120833 L89.1941667,7.06347222 L96.6163889,7.06347222 L96.6163889,29.91625 C105.731667,30.2731944 114.84,30.24125 124.169167,29.9384722 L124.169167,7.08847222 L131.478889,7.08847222 L131.478889,55.7579167 L124.208056,55.7579167 L124.208056,33.2898611 L96.5983333,33.2898611 Z" id="Fill-5"></path>
                <path d="M0,0.402222222 L7.55694444,0.402222222 C12.9111111,9.24944444 18.3388889,18.2216667 24.1597222,27.8425 C29.9486111,18.3244444 35.4319444,9.30916667 40.8569444,0.388333333 L48.3888889,0.388333333 C48.0319444,1.13555556 47.775,1.78694444 47.425,2.38277778 C41.1652778,13.0494444 34.8513889,23.6841667 28.6791667,34.4008333 C27.9194444,35.7216667 27.5875,37.4702778 27.5916667,39.0202778 C27.6125,45.6383333 27.8375,52.255 27.9791667,58.8730556 C28.0027778,60.03 27.9819444,61.1897222 27.9819444,62.4688889 L20.3208333,62.4688889 C20.3208333,61.3730556 20.3,60.2411111 20.3236111,59.1105556 C20.4638889,52.4925 20.7361111,45.8744444 20.6875,39.2577778 C20.6736111,37.3063889 20.1583333,35.1355556 19.1972222,33.4522222 C13.2805556,23.0897222 7.16805556,12.8383333 1.12777778,2.54666667 C0.761111111,1.92027778 0.45,1.26055556 0,0.402222222" id="Fill-7"></path>
                <path d="M61.7404167,15.8920833 C61.53625,15.9184722 61.3320833,15.9434722 61.1279167,15.9698611 C58.3043056,23.2990278 55.4806944,30.6281944 52.4973611,38.3726389 L70.3876389,38.3726389 C67.39875,30.6018056 64.5695833,23.2476389 61.7404167,15.8920833 M58.7084722,7.06430556 L64.1654167,7.06430556 C71.0209722,23.2518056 77.8918056,39.4740278 84.8334722,55.8643056 L77.4668056,55.8643056 C75.64875,51.3976389 73.7418056,46.7115278 71.7695833,41.8670833 L51.13625,41.8670833 C49.2279167,46.5948611 47.3348611,51.2851389 45.4473611,55.9643056 L38.0306944,55.9643056 C44.9640278,39.5656944 51.84875,23.28375 58.7084722,7.06430556" id="Fill-10"></path>
                <path d="M262.1675,49.1216667 C261.135556,48.9647222 260.431389,48.8577778 259.83,48.7675 C259.668889,48.3758333 259.505,48.1744444 259.523056,47.9911111 C260.964722,33.5647222 262.402222,19.1383333 263.891111,4.7175 C264.227222,1.45916667 266.041111,0.128611111 268.871667,0.852222222 C271.224444,1.45361111 272.075833,3.23972222 271.396667,6.25222222 C269.424444,15.0105556 267.386944,23.7536111 265.475833,32.5244444 C264.303611,37.905 263.316111,43.3244444 262.1675,49.1216667" id="Fill-12"></path>
                <path d="M259.019306,55.4398611 C261.573472,55.4565278 263.224861,57.0245833 263.134583,59.3426389 C263.05125,61.4704167 261.570694,62.8718056 259.372083,62.9023611 C256.872083,62.9384722 254.985972,61.3023611 255.033194,59.1398611 C255.081806,56.8870833 256.658194,55.4245833 259.019306,55.4398611" id="Fill-14"></path>
                <polygon id="Fill-16" points="183.090556 97.8970833 183.090556 70.9845833 178.316944 70.9845833 178.316944 83.0248611 164.980833 83.0248611 164.980833 70.9373611 160.407222 70.9373611 160.407222 97.8415278 165.076667 97.8415278 165.076667 85.2026389 178.453056 85.2026389 178.453056 97.8970833"></polygon>
                <polygon id="Fill-18" points="111.272639 72.7918056 125.264306 72.7918056 125.264306 70.9445833 106.550417 70.9445833 106.550417 97.8890278 125.299028 97.8890278 125.299028 96.0070833 118.262917 96.0070833 111.293472 96.0070833 111.293472 84.1543056 120.580972 84.1543056 120.580972 82.1806944 111.272639 82.1806944"></polygon>
                <path d="M153.148333,74.4440278 C150.241389,70.5440278 143.3275,69.1440278 137.721944,71.2468056 C131.596944,73.5440278 127.837222,79.2329167 128.324722,85.4620833 C128.834444,91.96625 133.285833,96.9051389 139.89,98.29125 C145.683056,99.5079167 152.070556,97.22875 154.294167,93.0773611 C153.785833,92.6759722 153.262222,92.2634722 152.674722,91.7995833 C152.320556,92.2009722 152.031667,92.5190278 151.753889,92.8468056 C147.335833,98.0634722 139.367778,97.5565278 135.783056,91.7106944 C133.165,87.4426389 133.141389,82.9093056 135.163611,78.3843056 C138.015,72.0065278 147.234444,70.1690278 151.363611,75.4398611 C151.410833,75.4995833 151.542778,75.4926389 151.762222,75.5495833 C152.184444,75.2120833 152.667778,74.8273611 153.148333,74.4440278" id="Fill-20"></path>
                <polygon id="Fill-23" points="92.7597222 72.7802778 102.408333 72.7802778 102.408333 70.9372222 78.2611111 70.9372222 78.2611111 72.8358333 88.0527778 72.8358333 88.0527778 97.8288889 92.7597222 97.8288889"></polygon>
            </g>
        </g>
    </g>
</svg>