<?xml version="1.0" encoding="UTF-8" standalone="no"?>
<svg width="53px" height="53px" viewBox="0 0 53 53" version="1.1" xmlns="http://www.w3.org/2000/svg" xmlns:xlink="http://www.w3.org/1999/xlink">
    <!-- Generator: Sketch 41.2 (35397) - http://www.bohemiancoding.com/sketch -->
    <title>Pet</title>
    <desc>Created with Sketch.</desc>
    <defs>
        <filter x="-50%" y="-50%" width="200%" height="200%" filterUnits="objectBoundingBox" id="filter-1">
            <feOffset dx="0" dy="2" in="SourceAlpha" result="shadowOffsetOuter1"></feOffset>
            <feGaussianBlur stdDeviation="2" in="shadowOffsetOuter1" result="shadowBlurOuter1"></feGaussianBlur>
            <feColorMatrix values="0 0 0 0 0   0 0 0 0 0   0 0 0 0 0  0 0 0 0.5 0" type="matrix" in="shadowBlurOuter1" result="shadowMatrixOuter1"></feColorMatrix>
            <feMerge>
                <feMergeNode in="shadowMatrixOuter1"></feMergeNode>
                <feMergeNode in="SourceGraphic"></feMergeNode>
            </feMerge>
        </filter>
    </defs>
    <g id="Product" stroke="none" stroke-width="1" fill="none" fill-rule="evenodd">
        <g transform="translate(-175.000000, -6324.000000)" id="Features">
            <g transform="translate(175.000000, 6159.000000)">
                <g id="Pet" filter="url(#filter-1)" transform="translate(0.000000, 165.000000)">
                    <path d="M47.5692308,24.7846154 C47.5692308,36.2635385 38.2635385,45.5692308 26.7846154,45.5692308 C15.3056923,45.5692308 6,36.2635385 6,24.7846154 C6,13.3056923 15.3056923,4 26.7846154,4 C38.2635385,4 47.5692308,13.3056923 47.5692308,24.7846154" id="Fill-1" fill="#BEA8D0"></path>
                    <path d="M24.8446462,15.5468769 C24.8446462,18.6645692 22.3171077,21.1931846 19.1983385,21.1931846 C16.0806462,21.1931846 13.5531077,18.6645692 13.5531077,15.5468769 C13.5531077,12.4291846 16.0806462,9.90056923 19.1983385,9.90056923 C22.3171077,9.90056923 24.8446462,12.4291846 24.8446462,15.5468769" id="Fill-3" fill="#F1E2EE"></path>
                    <path d="M19.1986615,10.3175538 C16.3146615,10.3175538 13.9691231,12.6630923 13.9691231,15.5470923 C13.9691231,18.4300154 16.3146615,20.7766308 19.1986615,20.7766308 C22.0826615,20.7766308 24.4282,18.4300154 24.4282,15.5470923 C24.4282,12.6630923 22.0826615,10.3175538 19.1986615,10.3175538 M19.1986615,21.6090923 C15.8558923,21.6090923 13.1366615,18.8898615 13.1366615,15.5470923 C13.1366615,12.2043231 15.8558923,9.48401538 19.1986615,9.48401538 C22.5414308,9.48401538 25.2606615,12.2043231 25.2606615,15.5470923 C25.2606615,18.8898615 22.5414308,21.6090923 19.1986615,21.6090923" id="Fill-5" fill="#532C83"></path>
                    <path d="M43.5253846,22.1647846 C43.5253846,24.8990923 41.308,27.1164769 38.5736923,27.1164769 C35.8383077,27.1164769 33.622,24.8990923 33.622,22.1647846 C33.622,19.4304769 35.8383077,17.2130923 38.5736923,17.2130923 C41.308,17.2130923 43.5253846,19.4304769 43.5253846,22.1647846" id="Fill-7" fill="#F1E2EE"></path>
                    <path d="M38.5735846,17.6295385 C36.0729692,17.6295385 34.0375846,19.6638462 34.0375846,22.1644615 C34.0375846,24.6661538 36.0729692,26.7004615 38.5735846,26.7004615 C41.0742,26.7004615 43.1085077,24.6661538 43.1085077,22.1644615 C43.1085077,19.6638462 41.0742,17.6295385 38.5735846,17.6295385 M38.5735846,27.5329231 C35.6131231,27.5329231 33.2051231,25.1249231 33.2051231,22.1644615 C33.2051231,19.2050769 35.6131231,16.796 38.5735846,16.796 C41.5340462,16.796 43.9420462,19.2050769 43.9420462,22.1644615 C43.9420462,25.1249231 41.5340462,27.5329231 38.5735846,27.5329231" id="Fill-9" fill="#532C83"></path>
                    <path d="M20.6802923,13.0008154 L21.3996769,12.1306615 C20.7944462,11.3649692 19.8586,10.8717385 18.8053692,10.8717385 C16.9778308,10.8717385 15.4970615,12.3535846 15.4970615,14.1811231 C15.4970615,16.0086615 16.9778308,17.4894308 18.8053692,17.4894308 C20.6329077,17.4894308 22.1147538,16.0086615 22.1147538,14.1811231 C22.1147538,13.7643538 22.0339846,13.3680462 21.8939846,13.0008154 L20.6802923,13.0008154 Z" id="Fill-11" fill="#532C83"></path>
                    <path d="M39.9322308,20.0815846 L40.6494615,19.1845077 C40.1217692,18.4802 39.2828462,18.0214308 38.3351538,18.0214308 C36.7380769,18.0214308 35.4425385,19.3169692 35.4425385,20.9140462 C35.4425385,22.5122 36.7380769,23.8066615 38.3351538,23.8066615 C39.9333077,23.8066615 41.2277692,22.5122 41.2277692,20.9140462 C41.2277692,20.6243538 41.1836154,20.3454308 41.105,20.0815846 L39.9322308,20.0815846 Z" id="Fill-13" fill="#532C83"></path>
                    <path d="M12.1183231,18.7862615 C11.9707846,18.7862615 11.8275538,18.7076462 11.7521692,18.5687231 C11.6423231,18.3673385 11.7166308,18.1142615 11.9190923,18.0044154 L13.6712462,17.0491846 C13.8715538,16.9393385 14.1257077,17.0136462 14.2355538,17.2150308 C14.3454,17.4174923 14.2710923,17.6705692 14.0697077,17.7804154 L12.3175538,18.7356462 C12.2540154,18.7701077 12.1861692,18.7862615 12.1183231,18.7862615" id="Fill-15" fill="#532C83"></path>
                    <path d="M13.1821077,20.4522615 C13.0841077,20.4522615 12.9861077,20.4178 12.9064154,20.3478 C12.7341077,20.1959538 12.7179538,19.9321077 12.8698,19.7598 L14.1384154,18.3253385 C14.2902615,18.1530308 14.5530308,18.1368769 14.7253385,18.2887231 C14.8987231,18.4416462 14.9148769,18.7044154 14.7619538,18.8767231 L13.4944154,20.3111846 C13.4125692,20.4048769 13.2973385,20.4522615 13.1821077,20.4522615" id="Fill-17" fill="#532C83"></path>
                    <path d="M14.6167846,21.6094154 C14.5467846,21.6094154 14.4757077,21.5921846 14.4100154,21.5544923 C14.2107846,21.4403385 14.1418615,21.1851077 14.2560154,20.9858769 L15.0777077,19.5514154 C15.1918615,19.3511077 15.4470923,19.2821846 15.6452462,19.3963385 C15.8455538,19.5115692 15.9144769,19.7657231 15.8003231,19.9649538 L14.9786308,21.3994154 C14.9010923,21.5340308 14.7610923,21.6094154 14.6167846,21.6094154" id="Fill-19" fill="#532C83"></path>
                    <path d="M40.4866308,28.8749846 C40.2970923,28.8749846 40.1258615,28.7457538 40.0817077,28.5529846 L39.7112462,26.9656 C39.6584769,26.7416 39.7974,26.5176 40.0214,26.4648308 C40.2464769,26.4120615 40.4694,26.5520615 40.5221692,26.7760615 L40.8926308,28.3634462 C40.9454,28.5874462 40.8054,28.8114462 40.5814,28.8642154 C40.5501692,28.8717538 40.5178615,28.8749846 40.4866308,28.8749846" id="Fill-21" fill="#532C83"></path>
                    <path d="M42.0605538,28.0812923 C41.9173231,28.0812923 41.7773231,28.0069846 41.6997846,27.8734462 L40.9157846,26.5219077 C40.8005538,26.3237538 40.8684,26.0685231 41.0665538,25.9532923 C41.2657846,25.8380615 41.5210154,25.9048308 41.6362462,26.1040615 L42.4202462,27.4556 C42.5354769,27.6548308 42.4687077,27.9100615 42.2694769,28.0252923 C42.2037846,28.0629846 42.1316308,28.0812923 42.0605538,28.0812923" id="Fill-23" fill="#532C83"></path>
                    <path d="M28.8404615,24.7276462 L30.5236923,24.7276462 C30.5236923,24.7276462 32.3393846,24.7976462 31.6544615,26.5174923 C30.9706154,28.2373385 28.7618462,28.7951846 28.078,28.7714923 C27.3941538,28.7478 25.1843077,28.2179538 24.3949231,26.0662615 C23.6055385,23.9145692 24.9473846,23.2630308 25.4998462,23.2867231 C26.0523077,23.3104154 26.552,23.7045692 26.6833846,23.7982615 C26.8147692,23.8908769 27.8141538,24.7276462 28.8404615,24.7276462" id="Fill-25" fill="#540F21"></path>
                    <path d="M25.4872462,23.5641385 C25.2761692,23.5641385 24.9035538,23.6890615 24.6644769,24.0315231 C24.3554,24.4730615 24.3521692,25.1439846 24.6558615,25.9699846 C25.3849385,27.9601385 27.4289385,28.4716769 28.0869385,28.4942923 L28.1203231,28.4942923 C28.7481692,28.4942923 30.7727846,27.9827538 31.3963231,26.4147538 C31.5654,25.9904462 31.5750923,25.6598308 31.4264769,25.4304462 C31.1734,25.0416769 30.5197077,25.0050615 30.5132462,25.0050615 L28.8407846,25.0050615 C28.1569385,25.0050615 27.3934,24.6873692 26.5695538,24.0595231 L26.4823231,23.9959846 C26.3272462,23.8829077 25.9137077,23.5824462 25.4883231,23.5641385 L25.4872462,23.5641385 Z M28.1203231,29.0499846 L28.0686308,29.0489077 C27.3126308,29.0230615 24.9692462,28.4372154 24.1346308,26.1616769 C23.6683231,24.8919846 23.9181692,24.1295231 24.2089385,23.7127538 C24.5492462,23.2259846 25.0877077,23.0084462 25.4710923,23.0084462 L25.5109385,23.0095231 C26.1043231,23.0342923 26.6158615,23.4058308 26.8097077,23.5458308 L26.9055538,23.6179846 C27.6303231,24.1704462 28.2818615,24.4504462 28.8407846,24.4504462 L30.5240154,24.4504462 C30.5724769,24.4515231 31.4792462,24.4935231 31.8917077,25.1278308 C32.1447846,25.5166 32.1523231,26.0184462 31.9132462,26.6193692 C31.1755538,28.4738308 28.8752462,29.0499846 28.1203231,29.0499846 L28.1203231,29.0499846 Z" id="Fill-27" fill="#532C82"></path>
                    <path d="M26.9855692,24.3154 C26.9855692,24.3154 26.5978769,26.4218615 27.3258769,26.7352462 C28.0549538,27.0475538 28.6106462,25.0003231 28.6106462,25.0003231 C28.6106462,25.0003231 27.3560308,24.8463231 26.9855692,24.3154" id="Fill-29" fill="#E8E1AC"></path>
                    <path d="M28.6104308,24.9998923 C28.6104308,24.9998923 28.6804308,26.9092769 29.4784308,26.9092769 C30.2764308,26.9092769 30.4153538,25.5200462 30.3808923,24.9998923 L28.6104308,24.9998923 Z" id="Fill-31" fill="#E8E1AC"></path>
                    <path d="M43.5253846,26.7297538 C43.4252308,26.7297538 43.3250769,26.6942154 43.2453846,26.6220615 L42.1264615,25.6086769 C41.9563077,25.4546769 41.9433846,25.1908308 42.0973846,25.0206769 C42.2524615,24.8494462 42.5152308,24.8365231 42.6853846,24.9905231 L43.8053846,26.0039077 C43.9755385,26.1589846 43.9884615,26.4217538 43.8344615,26.5929846 C43.7515385,26.6834462 43.6384615,26.7297538 43.5253846,26.7297538" id="Fill-33" fill="#532C83"></path>
                    <path d="M31.6827846,26.5170615 C30.9989385,28.2369077 28.7890923,28.7947538 28.1052462,28.7710615 C27.4214,28.7484462 25.2126308,28.2175231 24.4232462,26.0658308 C23.6338615,23.9141385 24.9757077,23.2636769 25.5281692,23.2862923 C26.0806308,23.3099846 26.5803231,23.7052154 26.7117077,23.7978308 C26.8430923,23.8904462 27.8424769,24.7272154 28.8687846,24.7272154 L30.5520154,24.7272154 C30.5520154,24.7272154 32.3666308,24.7972154 31.6827846,26.5170615 M31.3360154,23.8075231 L29.1154,23.8075231 C27.7617077,23.8075231 26.4424769,22.5582923 26.2690923,22.4193692 C26.0957077,22.2804462 25.4355538,21.6902923 24.7075538,21.6558308 C23.9784769,21.6202923 22.2080154,22.5927538 23.2494,25.8062923 C24.2907846,29.0198308 27.2060154,29.8124462 28.1084769,29.8469077 C29.0109385,29.8813692 31.9261692,29.0489077 32.8286308,26.4804462 C33.7310923,23.9119846 31.3360154,23.8075231 31.3360154,23.8075231" id="Fill-35" fill="#87469B"></path>
                    <path d="M40.6082154,38.6221077 C38.1086769,37.0605692 37.2148308,37.5053385 34.3577538,38.3981077 C31.5006769,39.2908769 26.3228308,37.3265692 23.2869846,35.8974923 C20.2511385,34.4694923 16.6789846,30.8973385 12.9291385,29.8258 C11.0100615,29.2776462 8.57621538,29.5716462 6.65713846,29.9894923 C8.96713846,38.9494923 17.1032923,45.5693385 26.7848308,45.5693385 C32.5269846,45.5693385 37.7252923,43.2399538 41.4869846,39.4750308 C41.1800615,39.0916462 40.8839077,38.7944154 40.6082154,38.6221077" id="Fill-37" fill="#8A78B7"></path>
                    <path d="M24.8298923,21.9328154 C24.5186615,21.9328154 24.0685077,22.1298923 23.7540462,22.5606615 C23.3986615,23.0495846 23.0917385,23.9951231 23.6506615,25.7203538 C24.6338923,28.7551231 27.3746615,29.5358923 28.2566615,29.5692769 L28.3018923,29.5703538 C29.1440462,29.5703538 31.8622,28.7863538 32.7043538,26.3880462 C32.9595846,25.6632769 32.9552769,25.0968154 32.6914308,24.7048154 C32.3069692,24.1329692 31.4691231,24.0855846 31.4615846,24.0845077 L29.2528154,24.0855846 C28.3643538,24.0855846 27.3703538,23.6160462 26.2966615,22.6898923 C26.2675846,22.6651231 26.2460462,22.6468154 26.2331231,22.6360462 L26.1814308,22.5940462 C25.9703538,22.4206615 25.4114308,21.9608154 24.8309692,21.9328154 L24.8298923,21.9328154 Z M28.3018923,30.1249692 L28.2351231,30.1238923 C27.2529692,30.0862 24.2031231,29.2278923 23.1229692,25.8915846 C22.4918923,23.9445077 22.8742,22.8277385 23.3049692,22.2343538 C23.7658923,21.6011231 24.4012769,21.3771231 24.8062,21.3771231 L24.8578923,21.3782 C25.6225077,21.4148154 26.2848154,21.9597385 26.5346615,22.1643538 L26.5798923,22.2020462 C26.5971231,22.2160462 26.6240462,22.2386615 26.6595846,22.2688154 C27.6288154,23.1055846 28.5022,23.5298923 29.2528154,23.5298923 L31.4734308,23.5298923 C31.5315846,23.5320462 32.6063538,23.5880462 33.1502,24.3914308 C33.5185077,24.9363538 33.5454308,25.6708154 33.2288154,26.5722 C32.2757385,29.2828154 29.2840462,30.1249692 28.3018923,30.1249692 L28.3018923,30.1249692 Z" id="Fill-39" fill="#532C83"></path>
                    <path d="M47.5692308,24.7846154 C47.5692308,36.2635385 38.2635385,45.5692308 26.7846154,45.5692308 C15.3056923,45.5692308 6,36.2635385 6,24.7846154 C6,13.3056923 15.3056923,4 26.7846154,4 C38.2635385,4 47.5692308,13.3056923 47.5692308,24.7846154 L47.5692308,24.7846154 Z" id="Stroke-41" stroke="#FEFEFE" stroke-width="3"></path>
                </g>
            </g>
        </g>
    </g>
</svg>