<?xml version="1.0" encoding="UTF-8" standalone="no"?>
<svg width="272px" height="25px" viewBox="0 0 272 25" version="1.1" xmlns="http://www.w3.org/2000/svg" xmlns:xlink="http://www.w3.org/1999/xlink">
    <!-- Generator: Sketch 40 (33762) - http://www.bohemiancoding.com/sketch -->
    <title>Page 1</title>
    <desc>Created with Sketch.</desc>
    <defs>
        <polygon id="path-1" points="0 24.9068182 271.642712 24.9068182 271.642712 0 0 0"></polygon>
    </defs>
    <g id="Product" stroke="none" stroke-width="1" fill="none" fill-rule="evenodd">
        <g transform="translate(-743.000000, -6561.000000)" id="Spec">
            <g transform="translate(162.000000, 5861.000000)">
                <g id="Page-1" transform="translate(581.000000, 700.000000)">
                    <path d="M95.0328814,2.62670455 C98.4202034,2.62670455 101.343051,4.62443182 102.656949,7.48238636 L95.7301695,9.12784091 L95.7301695,6.49715909 L86.9985085,8.57329545 C88.0162034,5.13920455 91.2306441,2.62670455 95.0328814,2.62670455 L95.0328814,2.62670455 Z M95.0328814,19.1244318 C90.4204068,19.1244318 86.6654237,15.4221591 86.6654237,10.8767045 C86.6654237,10.5971591 86.6769492,10.3210227 86.7057627,10.0482955 L94.4231864,8.21306818 L94.4231864,10.8517045 L104.52061,8.45056818 C103.429153,4.28920455 99.5934915,1.21306818 95.0328814,1.21306818 C89.6193898,1.21306818 85.2339661,5.54261364 85.2339661,10.8767045 C85.2339661,16.2119318 89.6193898,20.5426136 95.0328814,20.5426136 C99.3145763,20.5426136 102.958915,17.8278409 104.291254,14.0482955 L102.753763,14.0482955 C101.491729,17.0289773 98.504339,19.1244318 95.0328814,19.1244318 L95.0328814,19.1244318 Z" id="Fill-1" fill="#FEFEFE"></path>
                    <mask id="mask-2" fill="white">
                        <use xlink:href="#path-1"></use>
                    </mask>
                    <g id="Clip-4"></g>
                    <polygon id="Fill-3" fill="#FEFEFE" mask="url(#mask-2)" points="89.8844746 13.1238636 100.214712 13.1238636 100.214712 11.5306818 89.8844746 11.5306818"></polygon>
                    <polygon id="Fill-5" fill="#FEFEFE" mask="url(#mask-2)" points="95.9806169 18.2761364 95.9806169 15.6965909 100.215058 15.6965909 100.215058 14.1056818 89.8848203 14.1056818 89.8848203 15.6965909 94.1146508 15.6965909 94.1146508 18.2761364"></polygon>
                    <path d="M129.79379,14.0592045 L125.386468,14.0592045 C125.391078,13.5330682 125.521315,13.0717045 125.773722,12.67625 C126.024976,12.2842045 126.369586,11.9421591 126.8064,11.65125 C127.016163,11.5001136 127.233993,11.35125 127.462197,11.2092045 C127.686942,11.0671591 127.896705,10.91375 128.08918,10.7501136 C128.279349,10.5876136 128.43379,10.4103409 128.558264,10.2171591 C128.681586,10.02625 128.747281,9.80920455 128.754197,9.56034091 C128.754197,9.44443182 128.738061,9.32284091 128.711553,9.19215909 C128.683892,9.06375 128.629722,8.94102273 128.549044,8.82738636 C128.468366,8.71488636 128.360027,8.62170455 128.218264,8.54556818 C128.074197,8.47056818 127.892095,8.43306818 127.663892,8.43306818 C127.455281,8.43306818 127.281247,8.47511364 127.144095,8.55465909 C127.006942,8.63761364 126.893993,8.75011364 126.81101,8.89215909 C126.728027,9.03420455 126.666942,9.20352273 126.628908,9.39556818 C126.586264,9.58875 126.565519,9.80011364 126.558603,10.0239773 L125.50518,10.0239773 C125.50518,9.67397727 125.552434,9.34556818 125.649247,9.04784091 C125.746061,8.74556818 125.885519,8.48875 126.079146,8.26829545 C126.265858,8.05125 126.503281,7.88079545 126.775281,7.75579545 C127.047281,7.63193182 127.367688,7.56943182 127.729586,7.56943182 C128.123756,7.56943182 128.449925,7.63193182 128.713858,7.76034091 C128.976637,7.88647727 129.193315,8.04897727 129.354671,8.24215909 C129.51718,8.43761364 129.633586,8.64556818 129.701586,8.87511364 C129.769586,9.10125 129.80301,9.31829545 129.80301,9.52284091 C129.80301,9.77738636 129.764976,10.0092045 129.683146,10.2148864 C129.602468,10.4194318 129.494129,10.6103409 129.359281,10.7807955 C129.224434,10.9569318 129.071146,11.11375 128.900569,11.2603409 C128.728841,11.4046591 128.549044,11.5421591 128.366942,11.6682955 C128.180231,11.7955682 127.996976,11.9171591 127.810264,12.0330682 C127.625858,12.1478409 127.455281,12.26375 127.299688,12.3773864 C127.144095,12.4921591 127.006942,12.6126136 126.889383,12.7364773 C126.772976,12.8603409 126.694603,12.9944318 126.648502,13.1319318 L129.79379,13.1319318 L129.79379,14.0592045 Z" id="Fill-6" fill="#FEFEFE" mask="url(#mask-2)"></path>
                    <path d="M132.807919,13.3223864 C133.034969,13.3223864 133.226292,13.2576136 133.37958,13.1269318 C133.532868,12.99625 133.65158,12.82125 133.743783,12.6007955 C133.834834,12.3792045 133.897071,12.1189773 133.933953,11.8246591 C133.969681,11.5269318 133.989275,11.2121591 133.989275,10.8792045 C133.989275,10.5439773 133.969681,10.2303409 133.933953,9.93715909 C133.897071,9.64284091 133.834834,9.38488636 133.743783,9.16102273 C133.65158,8.93715909 133.532868,8.75875 133.37958,8.62806818 C133.226292,8.49965909 133.034969,8.43261364 132.807919,8.43261364 C132.576258,8.43261364 132.384936,8.49965909 132.231647,8.62806818 C132.080664,8.75875 131.961953,8.93715909 131.873207,9.16102273 C131.783308,9.38488636 131.721071,9.64284091 131.68419,9.93715909 C131.646156,10.2303409 131.628868,10.5439773 131.628868,10.8792045 C131.628868,11.2121591 131.646156,11.5269318 131.68419,11.8246591 C131.721071,12.1189773 131.783308,12.3792045 131.873207,12.6007955 C131.961953,12.82125 132.080664,12.99625 132.231647,13.1269318 C132.384936,13.2576136 132.576258,13.3223864 132.807919,13.3223864 M132.807919,7.57011364 C133.268936,7.57011364 133.645817,7.67352273 133.93741,7.88261364 C134.227851,8.09056818 134.458359,8.35988636 134.619715,8.68375 C134.782224,9.00761364 134.892868,9.36329545 134.9528,9.75079545 C135.009275,10.1394318 135.040393,10.5144318 135.040393,10.8792045 C135.040393,11.2405682 135.009275,11.6178409 134.9528,12.0042045 C134.892868,12.3951136 134.782224,12.7496591 134.619715,13.07125 C134.458359,13.3973864 134.227851,13.6644318 133.93741,13.8723864 C133.645817,14.0814773 133.268936,14.1860227 132.807919,14.1860227 C132.349207,14.1860227 131.97002,14.0814773 131.678427,13.8723864 C131.387986,13.6644318 131.159783,13.3973864 130.998427,13.07125 C130.831308,12.7496591 130.722969,12.3951136 130.665342,12.0042045 C130.606563,11.6178409 130.576597,11.2405682 130.576597,10.8792045 C130.576597,10.5144318 130.606563,10.1394318 130.665342,9.75079545 C130.722969,9.36329545 130.831308,9.00761364 130.998427,8.68375 C131.159783,8.35988636 131.387986,8.09056818 131.678427,7.88261364 C131.97002,7.67352273 132.349207,7.57011364 132.807919,7.57011364" id="Fill-7" fill="#FEFEFE" mask="url(#mask-2)"></path>
                    <path d="M135.952631,8.75022727 C136.175071,8.75022727 136.387139,8.73431818 136.595749,8.69681818 C136.807817,8.65931818 136.996834,8.59909091 137.1628,8.515 C137.332224,8.43090909 137.476292,8.31954545 137.595003,8.18659091 C137.717173,8.05363636 137.793241,7.89113636 137.83358,7.69568182 L138.689919,7.69568182 L138.689919,14.0593182 L137.537376,14.0593182 L137.537376,9.56954545 L135.952631,9.56954545 L135.952631,8.75022727 Z" id="Fill-8" fill="#FEFEFE" mask="url(#mask-2)"></path>
                    <polygon id="Fill-9" fill="#FEFEFE" mask="url(#mask-2)" points="141.132271 12.0795455 143.81539 12.0795455 143.81539 11.0965909 141.132271 11.0965909"></polygon>
                    <path d="M144.845993,8.75022727 C145.068434,8.75022727 145.285112,8.73431818 145.492569,8.69681818 C145.70118,8.65931818 145.890197,8.59909091 146.05962,8.515 C146.230197,8.43090909 146.374264,8.31954545 146.496434,8.18659091 C146.615146,8.05363636 146.692366,7.89113636 146.728095,7.69568182 L147.587892,7.69568182 L147.587892,14.0593182 L146.435349,14.0593182 L146.435349,9.56954545 L144.845993,9.56954545 L144.845993,8.75022727 Z" id="Fill-10" fill="#FEFEFE" mask="url(#mask-2)"></path>
                    <path d="M152.207051,13.3223864 C152.393763,13.3223864 152.563186,13.2848864 152.704949,13.20875 C152.844407,13.13375 152.963119,13.0360227 153.057627,12.9144318 C153.154441,12.7917045 153.222441,12.6519318 153.272,12.4928409 C153.316949,12.3326136 153.341153,12.1655682 153.341153,11.9951136 C153.341153,11.8269318 153.316949,11.6621591 153.272,11.5042045 C153.222441,11.3473864 153.154441,11.2098864 153.057627,11.0917045 C152.963119,10.9746591 152.844407,10.8792045 152.704949,10.8030682 C152.563186,10.7326136 152.393763,10.69625 152.207051,10.69625 C152.013424,10.69625 151.84861,10.7303409 151.701085,10.8007955 C151.557017,10.8723864 151.437153,10.9632955 151.338034,11.0826136 C151.238915,11.2030682 151.167458,11.3382955 151.117898,11.49625 C151.068339,11.6530682 151.042983,11.8223864 151.042983,11.9951136 C151.042983,12.1723864 151.068339,12.3394318 151.117898,12.4939773 C151.167458,12.6542045 151.238915,12.7939773 151.338034,12.9189773 C151.437153,13.0428409 151.557017,13.1405682 151.701085,13.2155682 C151.84861,13.2871591 152.013424,13.3223864 152.207051,13.3223864 L152.207051,13.3223864 Z M153.220136,9.30761364 C153.19478,9.04511364 153.100271,8.83488636 152.938915,8.67465909 C152.776407,8.51329545 152.556271,8.43261364 152.278508,8.43261364 C152.089492,8.43261364 151.923525,8.46897727 151.786373,8.53715909 C151.646915,8.60875 151.529356,8.69965909 151.434847,8.81443182 C151.340339,8.93034091 151.264271,9.06329545 151.205492,9.20988636 C151.146712,9.36102273 151.097153,9.51329545 151.063729,9.68034091 C151.028,9.84170455 151.000339,10.0042045 150.984203,10.1644318 C150.96922,10.3235227 150.95539,10.4746591 150.941559,10.6121591 L150.96,10.6326136 C151.101763,10.3769318 151.29539,10.1905682 151.545492,10.0644318 C151.795593,9.93943182 152.065288,9.87806818 152.353424,9.87806818 C152.672678,9.87806818 152.958508,9.93375 153.210915,10.0417045 C153.463322,10.1507955 153.676542,10.2996591 153.850576,10.4905682 C154.028068,10.68375 154.158305,10.9076136 154.252814,11.1689773 C154.345017,11.4292045 154.391119,11.7132955 154.391119,12.0155682 C154.391119,12.3235227 154.339254,12.6098864 154.237831,12.8735227 C154.136407,13.1360227 153.992339,13.3667045 153.798712,13.5644318 C153.609695,13.7598864 153.382644,13.9144318 153.118712,14.0235227 C152.85478,14.1326136 152.563186,14.1860227 152.240475,14.1860227 C151.767932,14.1860227 151.380678,14.1019318 151.077559,13.9280682 C150.770983,13.7553409 150.530102,13.5178409 150.35722,13.2178409 C150.183186,12.9189773 150.059864,12.5678409 149.994169,12.1632955 C149.925017,11.7621591 149.892746,11.3269318 149.892746,10.8610227 C149.892746,10.4792045 149.933085,10.0928409 150.014915,9.70420455 C150.097898,9.31897727 150.232746,8.96329545 150.426373,8.64625 C150.61539,8.32806818 150.867797,8.06897727 151.175525,7.86897727 C151.489017,7.66897727 151.869356,7.57011364 152.326915,7.57011364 C152.585085,7.57011364 152.825966,7.61215909 153.055322,7.69625 C153.28122,7.78261364 153.48061,7.89852273 153.659254,8.05079545 C153.832136,8.20193182 153.976203,8.38375 154.086847,8.59738636 C154.195186,8.80761364 154.257424,9.04511364 154.271254,9.30761364 L153.220136,9.30761364 Z" id="Fill-11" fill="#FEFEFE" mask="url(#mask-2)"></path>
                    <path d="M157.359722,13.3223864 C157.586773,13.3223864 157.77579,13.2576136 157.931383,13.1269318 C158.084671,12.99625 158.205688,12.82125 158.294434,12.6007955 C158.384332,12.3792045 158.448875,12.1189773 158.483451,11.8246591 C158.51918,11.5269318 158.536468,11.2121591 158.536468,10.8792045 C158.536468,10.5439773 158.51918,10.2303409 158.483451,9.93715909 C158.448875,9.64284091 158.384332,9.38488636 158.294434,9.16102273 C158.205688,8.93715909 158.084671,8.75875 157.931383,8.62806818 C157.77579,8.49965909 157.586773,8.43261364 157.359722,8.43261364 C157.123451,8.43261364 156.932129,8.49965909 156.783451,8.62806818 C156.632468,8.75875 156.513756,8.93715909 156.421553,9.16102273 C156.335112,9.38488636 156.272875,9.64284091 156.233688,9.93715909 C156.197959,10.2303409 156.180671,10.5439773 156.180671,10.8792045 C156.180671,11.2121591 156.197959,11.5269318 156.233688,11.8246591 C156.272875,12.1189773 156.335112,12.3792045 156.421553,12.6007955 C156.513756,12.82125 156.632468,12.99625 156.783451,13.1269318 C156.932129,13.2576136 157.123451,13.3223864 157.359722,13.3223864 M157.359722,7.57011364 C157.820739,7.57011364 158.195315,7.67352273 158.488061,7.88261364 C158.781959,8.09056818 159.010163,8.35988636 159.171519,8.68375 C159.334027,9.00761364 159.444671,9.36329545 159.499993,9.75079545 C159.561078,10.1394318 159.592197,10.5144318 159.592197,10.8792045 C159.592197,11.2405682 159.561078,11.6178409 159.499993,12.0042045 C159.444671,12.3951136 159.334027,12.7496591 159.171519,13.07125 C159.010163,13.3973864 158.781959,13.6644318 158.488061,13.8723864 C158.195315,14.0814773 157.820739,14.1860227 157.359722,14.1860227 C156.90101,14.1860227 156.521824,14.0814773 156.230231,13.8723864 C155.93979,13.6644318 155.711586,13.3973864 155.54562,13.07125 C155.383112,12.7496591 155.272468,12.3951136 155.217146,12.0042045 C155.156061,11.6178409 155.1284,11.2405682 155.1284,10.8792045 C155.1284,10.5144318 155.156061,10.1394318 155.217146,9.75079545 C155.272468,9.36329545 155.383112,9.00761364 155.54562,8.68375 C155.711586,8.35988636 155.93979,8.09056818 156.230231,7.88261364 C156.521824,7.67352273 156.90101,7.57011364 157.359722,7.57011364" id="Fill-12" fill="#FEFEFE" mask="url(#mask-2)"></path>
                    <path d="M164.781403,14.0592045 L160.374081,14.0592045 C160.380997,13.5330682 160.508929,13.0717045 160.761336,12.67625 C161.01259,12.2842045 161.354895,11.9421591 161.794014,11.65125 C162.001471,11.5001136 162.219302,11.35125 162.44981,11.2092045 C162.676861,11.0671591 162.884319,10.91375 163.075641,10.7501136 C163.264658,10.5876136 163.421403,10.4103409 163.543573,10.2171591 C163.666895,10.02625 163.73259,9.80920455 163.739505,9.56034091 C163.739505,9.44443182 163.723369,9.32284091 163.696861,9.19215909 C163.6692,9.06375 163.615031,8.94102273 163.534353,8.82738636 C163.458285,8.71488636 163.345336,8.62170455 163.205878,8.54556818 C163.064115,8.47056818 162.877403,8.43306818 162.6492,8.43306818 C162.442895,8.43306818 162.268861,8.47511364 162.129403,8.55465909 C161.992251,8.63761364 161.881607,8.75011364 161.796319,8.89215909 C161.715641,9.03420455 161.652251,9.20352273 161.614217,9.39556818 C161.576183,9.58875 161.550827,9.80011364 161.543912,10.0239773 L160.495098,10.0239773 C160.495098,9.67397727 160.540047,9.34556818 160.634556,9.04784091 C160.731369,8.74556818 160.875437,8.48875 161.064454,8.26829545 C161.255776,8.05125 161.48859,7.88079545 161.76059,7.75579545 C162.034895,7.63193182 162.352997,7.56943182 162.714895,7.56943182 C163.109064,7.56943182 163.439844,7.63193182 163.702624,7.76034091 C163.966556,7.88647727 164.180929,8.04897727 164.342285,8.24215909 C164.504793,8.43761364 164.6212,8.64556818 164.686895,8.87511364 C164.7572,9.10125 164.788319,9.31829545 164.788319,9.52284091 C164.788319,9.77738636 164.750285,10.0092045 164.668454,10.2148864 C164.592386,10.4194318 164.484047,10.6103409 164.3492,10.7807955 C164.214353,10.9569318 164.056454,11.11375 163.885878,11.2603409 C163.714149,11.4046591 163.534353,11.5421591 163.352251,11.6682955 C163.165539,11.7955682 162.982285,11.9171591 162.800183,12.0330682 C162.613471,12.1478409 162.442895,12.26375 162.287302,12.3773864 C162.129403,12.4921591 161.992251,12.6126136 161.875844,12.7364773 C161.758285,12.8603409 161.679912,12.9944318 161.63842,13.1319318 L164.781403,13.1319318 L164.781403,14.0592045 Z" id="Fill-13" fill="#FEFEFE" mask="url(#mask-2)"></path>
                    <path d="M167.797837,13.3223864 C168.020278,13.3223864 168.213905,13.2576136 168.367193,13.1269318 C168.520481,12.99625 168.641498,12.82125 168.730244,12.6007955 C168.820142,12.3792045 168.88238,12.1189773 168.919261,11.8246591 C168.957295,11.5269318 168.974583,11.2121591 168.974583,10.8792045 C168.974583,10.5439773 168.957295,10.2303409 168.919261,9.93715909 C168.88238,9.64284091 168.820142,9.38488636 168.730244,9.16102273 C168.641498,8.93715909 168.520481,8.75875 168.367193,8.62806818 C168.213905,8.49965909 168.020278,8.43261364 167.797837,8.43261364 C167.561566,8.43261364 167.370244,8.49965909 167.219261,8.62806818 C167.065973,8.75875 166.947261,8.93715909 166.859668,9.16102273 C166.768617,9.38488636 166.708685,9.64284091 166.669498,9.93715909 C166.633769,10.2303409 166.614176,10.5439773 166.614176,10.8792045 C166.614176,11.2121591 166.633769,11.5269318 166.669498,11.8246591 C166.708685,12.1189773 166.768617,12.3792045 166.859668,12.6007955 C166.947261,12.82125 167.065973,12.99625 167.219261,13.1269318 C167.370244,13.2576136 167.561566,13.3223864 167.797837,13.3223864 M167.797837,7.57011364 C168.254244,7.57011364 168.633431,7.67352273 168.926176,7.88261364 C169.215464,8.09056818 169.443668,8.35988636 169.605024,8.68375 C169.772142,9.00761364 169.880481,9.36329545 169.938108,9.75079545 C169.996888,10.1394318 170.026854,10.5144318 170.026854,10.8792045 C170.026854,11.2405682 169.996888,11.6178409 169.938108,12.0042045 C169.880481,12.3951136 169.772142,12.7496591 169.605024,13.07125 C169.443668,13.3973864 169.215464,13.6644318 168.926176,13.8723864 C168.633431,14.0814773 168.254244,14.1860227 167.797837,14.1860227 C167.334515,14.1860227 166.957634,14.0814773 166.666041,13.8723864 C166.373295,13.6644318 166.145092,13.3973864 165.983736,13.07125 C165.821227,12.7496591 165.710583,12.3951136 165.650651,12.0042045 C165.594176,11.6178409 165.565363,11.2405682 165.565363,10.8792045 C165.565363,10.5144318 165.594176,10.1394318 165.650651,9.75079545 C165.710583,9.36329545 165.821227,9.00761364 165.983736,8.68375 C166.145092,8.35988636 166.373295,8.09056818 166.666041,7.88261364 C166.957634,7.67352273 167.334515,7.57011364 167.797837,7.57011364" id="Fill-14" fill="#FEFEFE" mask="url(#mask-2)"></path>
                    <path d="M170.938054,8.75022727 C171.160495,8.75022727 171.377173,8.73431818 171.584631,8.69681818 C171.793241,8.65931818 171.982258,8.59909091 172.151681,8.515 C172.317647,8.43090909 172.466325,8.31954545 172.58619,8.18659091 C172.702597,8.05363636 172.784427,7.89113636 172.820156,7.69568182 L173.677647,7.69568182 L173.677647,14.0593182 L172.52741,14.0593182 L172.52741,9.56954545 L170.938054,9.56954545 L170.938054,8.75022727 Z" id="Fill-15" fill="#FEFEFE" mask="url(#mask-2)"></path>
                    <path d="M111.378237,15.7840909 L121.328136,15.7840909 L121.328136,5.97159091 L111.378237,5.97159091 L111.378237,15.7840909 Z M121.98278,17.0704545 L110.724746,17.0704545 C110.365153,17.0704545 110.072407,16.7829545 110.072407,16.4295455 L110.072407,5.32954545 C110.072407,4.975 110.365153,4.68409091 110.724746,4.68409091 L121.98278,4.68409091 C122.342373,4.68409091 122.635119,4.975 122.635119,5.32954545 L122.635119,16.4295455 C122.635119,16.7829545 122.342373,17.0704545 121.98278,17.0704545 L121.98278,17.0704545 Z" id="Fill-16" fill="#FEFEFE" mask="url(#mask-2)"></path>
                    <path d="M116.408969,10.8520455 C117.219207,10.8520455 117.734393,10.435 117.734393,9.78840909 L117.734393,9.77136364 C117.734393,9.08954545 117.237647,8.71681818 116.397444,8.71681818 L114.750461,8.71681818 L114.750461,10.8520455 L116.408969,10.8520455 Z M113.615207,7.70090909 L116.489647,7.70090909 C117.299885,7.70090909 117.937241,7.93613636 118.352156,8.335 C118.693308,8.68159091 118.884631,9.15204545 118.884631,9.70659091 L118.884631,9.72704545 C118.884631,10.7702273 118.253037,11.3975 117.347139,11.6531818 L119.087478,14.0588636 L117.752834,14.0588636 L116.170393,11.8418182 L114.750461,11.8418182 L114.750461,14.0588636 L113.615207,14.0588636 L113.615207,7.70090909 Z" id="Fill-17" fill="#FEFEFE" mask="url(#mask-2)"></path>
                    <path d="M6.47625085,8.88568182 C6.31374237,9.01636364 6.07747119,9.08568182 5.76974237,9.08568182 L5.26953898,9.08568182 L5.26953898,7.55386364 C5.32947119,7.54477273 5.39977627,7.53795455 5.48621695,7.53454545 C5.5692,7.53 5.65679322,7.52545455 5.74669153,7.52545455 C6.04865763,7.52545455 6.28492881,7.58909091 6.46242034,7.71636364 C6.63645424,7.84022727 6.72174237,8.03340909 6.72174237,8.28909091 C6.72174237,8.55272727 6.64106441,8.75272727 6.47625085,8.88568182 M6.66642034,9.84022727 C6.76669153,9.91068182 6.84736949,10.0015909 6.90845424,10.1175 C6.96492881,10.2311364 6.99604746,10.3709091 6.99604746,10.5368182 C6.99604746,10.7061364 6.96377627,10.8459091 6.8992339,10.9561364 C6.83814915,11.0652273 6.75055593,11.1561364 6.64106441,11.2186364 C6.53157288,11.2822727 6.40594576,11.3288636 6.26187797,11.3584091 C6.12011525,11.3822727 5.96567458,11.3981818 5.8031661,11.3981818 C5.70750508,11.3981818 5.60953898,11.3959091 5.51272542,11.3890909 C5.41360678,11.3845455 5.33292881,11.3777273 5.26953898,11.3720455 L5.26953898,9.64931818 L5.84350508,9.64931818 C6.00601356,9.64931818 6.15930169,9.66295455 6.30106441,9.69136364 C6.44052203,9.71977273 6.56384407,9.77090909 6.66642034,9.84022727 M7.17930169,8.95272727 C7.25421695,8.85954545 7.31184407,8.755 7.35448814,8.63681818 C7.3971322,8.5175 7.41903051,8.38909091 7.41903051,8.24818182 C7.41903051,8.01977273 7.37638644,7.82659091 7.29455593,7.66522727 C7.20811525,7.50727273 7.08825085,7.37431818 6.9372678,7.27431818 C6.7851322,7.17431818 6.59957288,7.10159091 6.39096271,7.055 C6.17428475,7.01068182 5.94031864,6.98795455 5.67984407,6.98795455 C5.47008136,6.98795455 5.26262373,6.99477273 5.05977627,7.00840909 C4.85577627,7.02090909 4.69442034,7.03909091 4.58031864,7.06181818 L4.58031864,11.9015909 C4.76242034,11.9243182 4.9572,11.9413636 5.1612,11.9572727 C5.36635254,11.9754545 5.55536949,11.9822727 5.72709831,11.9822727 C6.00486102,11.9822727 6.26187797,11.9572727 6.50736949,11.9084091 C6.75055593,11.8572727 6.96262373,11.7777273 7.14242034,11.6640909 C7.32221695,11.5561364 7.46282712,11.405 7.57001356,11.2254545 C7.67374237,11.0447727 7.72675932,10.8231818 7.72675932,10.5640909 C7.72675932,10.3481818 7.69333559,10.1640909 7.62648814,10.0152273 C7.55848814,9.86409091 7.47665763,9.74022727 7.36947119,9.6425 C7.26804746,9.54477273 7.14933559,9.46522727 7.02140339,9.41409091 C6.89001356,9.36068182 6.76208136,9.32545455 6.63414915,9.31181818 C6.73557288,9.28568182 6.83008136,9.24022727 6.9292,9.18113636 C7.02370847,9.12090909 7.10899661,9.04363636 7.17930169,8.95272727" id="Fill-18" fill="#FEFEFE" mask="url(#mask-2)"></path>
                    <path d="M10.8140746,9.06545455 C10.7460746,9.19840909 10.6584814,9.30295455 10.5501424,9.38022727 C10.4418034,9.45636364 10.3161763,9.50977273 10.1778712,9.53818182 C10.0395661,9.56659091 9.90126102,9.58022727 9.75949831,9.58022727 C9.65461695,9.58022727 9.57393898,9.57795455 9.51976949,9.57340909 C9.46329492,9.56886364 9.40105763,9.56431818 9.32729492,9.55409091 L9.32729492,7.59386364 C9.45637966,7.58022727 9.60390508,7.57454545 9.77332881,7.57454545 C9.93583729,7.57454545 10.090278,7.58931818 10.2285831,7.62227273 C10.3680407,7.65409091 10.4902102,7.7075 10.5904814,7.7825 C10.6919051,7.85977273 10.7714305,7.95977273 10.8256,8.08704545 C10.8820746,8.21318182 10.9085831,8.36659091 10.9085831,8.55068182 C10.9085831,8.76318182 10.8797695,8.93477273 10.8140746,9.06545455 M11.0791593,7.31204545 C10.9074305,7.19045455 10.7080407,7.10522727 10.4856,7.05409091 C10.2597017,7.00636364 10.022278,6.98136364 9.77332881,6.98136364 C9.6776678,6.98136364 9.57854915,6.98363636 9.47597288,6.98818182 C9.37109153,6.99272727 9.27197288,6.99727273 9.16824407,7.00409091 C9.06682034,7.00977273 8.96885424,7.01886364 8.87549831,7.02795455 C8.78329492,7.03704545 8.70261695,7.04613636 8.63461695,7.05409091 L8.63461695,11.9018182 C8.68878644,11.9109091 8.74641356,11.9177273 8.80749831,11.9177273 C8.86858305,11.9222727 8.92851525,11.9222727 8.97922712,11.9222727 C9.10485424,11.9222727 9.21895593,11.9154545 9.32729492,11.9018182 L9.32729492,10.1529545 C9.40682034,10.1620455 9.47712542,10.1665909 9.54282034,10.1711364 C9.61082034,10.1734091 9.68573559,10.1734091 9.77332881,10.1734091 C10.0038373,10.1734091 10.2320407,10.1461364 10.4544814,10.0972727 C10.6780746,10.0438636 10.8774644,9.95522727 11.0526508,9.83136364 C11.2255322,9.70409091 11.3661424,9.53818182 11.4744814,9.32909091 C11.5816678,9.12113636 11.6358373,8.85863636 11.6358373,8.54613636 C11.6358373,8.24386364 11.5839729,7.99386364 11.4848542,7.79386364 C11.3834305,7.59386364 11.2485831,7.4325 11.0791593,7.31204545" id="Fill-19" fill="#FEFEFE" mask="url(#mask-2)"></path>
                    <path d="M12.8804678,10.18625 L13.6284678,7.71579545 L14.3776203,10.18625 L12.8804678,10.18625 Z M14.0491458,7.06125 C13.9857559,7.05215909 13.920061,7.04534091 13.852061,7.04079545 C13.784061,7.03738636 13.7172136,7.03511364 13.6503661,7.03511364 C13.580061,7.03511364 13.5109085,7.03738636 13.4406034,7.04079545 C13.3737559,7.04534091 13.3115186,7.05215909 13.2515864,7.06125 L11.6541627,11.9021591 C11.703722,11.91125 11.7590441,11.9169318 11.8224339,11.9214773 C11.8812136,11.92375 11.9469085,11.9282955 12.0091458,11.9282955 C12.069078,11.9282955 12.1267051,11.92375 12.1866373,11.9214773 C12.2454169,11.9169318 12.3065017,11.91125 12.3652814,11.9021591 L12.7006712,10.7851136 L14.5608746,10.7851136 L14.899722,11.9021591 C14.9561966,11.91125 15.0149763,11.9169318 15.0772136,11.9214773 C15.1406034,11.92375 15.1993831,11.9282955 15.2570102,11.9282955 C15.3204,11.9282955 15.3860949,11.92375 15.4552475,11.9214773 C15.5232475,11.9169318 15.5820271,11.91125 15.6408068,11.9021591 L14.0491458,7.06125 Z" id="Fill-20" fill="#FEFEFE" mask="url(#mask-2)"></path>
                    <path d="M6.61582373,13.5509091 C6.62273898,13.5156818 6.62734915,13.4781818 6.63426441,13.435 C6.63887458,13.3929545 6.63887458,13.3509091 6.63887458,13.3134091 C6.63887458,13.2736364 6.63887458,13.2338636 6.63426441,13.1918182 C6.62734915,13.1509091 6.62273898,13.1134091 6.61582373,13.0781818 L4.5804339,13.0781818 L4.5804339,16.9134091 C4.62192542,16.9225 4.66687458,16.9270455 4.71412881,16.9293182 C4.76253559,16.9338636 4.81094237,16.9361364 4.85819661,16.9361364 C4.91006102,16.9361364 4.95731525,16.9338636 5.00226441,16.9293182 C5.04606102,16.9270455 5.08985763,16.9225 5.13480678,16.9134091 L5.13480678,15.1577273 L6.37263729,15.1577273 C6.38185763,15.1179545 6.3864678,15.0804545 6.39107797,15.0384091 C6.39338305,14.9975 6.39568814,14.9577273 6.39568814,14.9179545 C6.39568814,14.8781818 6.39338305,14.8384091 6.39107797,14.7986364 C6.3864678,14.7577273 6.38185763,14.7179545 6.37263729,14.6781818 L5.13480678,14.6781818 L5.13480678,13.5509091 L6.61582373,13.5509091 Z" id="Fill-21" fill="#FEFEFE" mask="url(#mask-2)"></path>
                    <path d="M7.92591864,13.0182955 C7.85791864,13.0228409 7.7887661,13.0273864 7.72998644,13.0342045 C7.66429153,13.0364773 7.59974915,13.0421591 7.53751186,13.0489773 C7.47066441,13.0580682 7.39920678,13.0626136 7.32198644,13.0717045 L7.32198644,16.91375 C7.36347797,16.9228409 7.40957966,16.92625 7.46259661,16.92625 C7.51215593,16.9285227 7.55825763,16.9285227 7.59974915,16.9285227 C7.64585085,16.9285227 7.69195254,16.9285227 7.74035932,16.92625 C7.78761356,16.9228409 7.83141017,16.9205682 7.86944407,16.91375 L7.86944407,13.4932955 C7.93629153,13.4864773 7.99622373,13.4796591 8.04693559,13.4773864 C8.0988,13.4728409 8.1587322,13.4705682 8.21866441,13.4705682 C8.47798644,13.4705682 8.68544407,13.5330682 8.83757966,13.6592045 C8.9908678,13.7819318 9.06924068,13.9751136 9.06924068,14.2296591 C9.06924068,14.3671591 9.03812203,14.4876136 8.97588475,14.5853409 C8.9148,14.6830682 8.83757966,14.7671591 8.74652881,14.8364773 C8.65317288,14.9046591 8.55405424,14.9603409 8.44571525,15.0046591 C8.33737627,15.0444318 8.2348,15.0796591 8.13798644,15.1046591 L8.09418983,15.1160227 L8.09418983,15.1376136 L9.34008814,16.91375 C9.43690169,16.92625 9.53371525,16.9285227 9.63168136,16.9285227 C9.75385085,16.9285227 9.86449492,16.92625 9.96246102,16.91375 L8.82835932,15.2978409 L8.89520678,15.2648864 C8.97934237,15.2239773 9.07039322,15.1694318 9.16144407,15.1046591 C9.25595254,15.0376136 9.33778305,14.9580682 9.40924068,14.8717045 C9.47954576,14.7807955 9.54178305,14.6807955 9.59018983,14.5648864 C9.63398644,14.4523864 9.65934237,14.3251136 9.65934237,14.1876136 C9.65934237,13.9569318 9.61208814,13.7660227 9.52449492,13.6126136 C9.43690169,13.4626136 9.32395254,13.3421591 9.18218983,13.2535227 C9.0427322,13.1648864 8.88137627,13.1023864 8.70042712,13.0648864 C8.51832542,13.0319318 8.33737627,13.01375 8.15181695,13.01375 C8.07229153,13.01375 7.99391864,13.01375 7.92591864,13.0182955" id="Fill-22" fill="#FEFEFE" mask="url(#mask-2)"></path>
                    <path d="M10.5416136,16.9134091 L12.7210712,16.9134091 C12.7302915,16.8781818 12.7337492,16.8406818 12.7372068,16.7975 L12.7372068,16.6736364 C12.7372068,16.5895455 12.7314441,16.5111364 12.7210712,16.4406818 L11.0913763,16.4406818 L11.0913763,15.1270455 L12.3591729,15.1270455 C12.3660881,15.0906818 12.3730034,15.0509091 12.376461,15.0088636 C12.3787661,14.9668182 12.3810712,14.9247727 12.3810712,14.8872727 C12.3810712,14.8475 12.3787661,14.8065909 12.376461,14.7668182 C12.3730034,14.7247727 12.3660881,14.6872727 12.3591729,14.6520455 L11.0913763,14.6520455 L11.0913763,13.5509091 L12.6784271,13.5509091 C12.6864949,13.5156818 12.6888,13.4781818 12.6899525,13.435 C12.6934102,13.3929545 12.6934102,13.3509091 12.6934102,13.3134091 C12.6934102,13.2270455 12.6888,13.1475 12.6784271,13.0781818 L10.5416136,13.0781818 L10.5416136,16.9134091 Z" id="Fill-23" fill="#FEFEFE" mask="url(#mask-2)"></path>
                    <path d="M15.5806441,13.5509091 C15.5875593,13.5156818 15.5910169,13.4781818 15.5944746,13.435 C15.5944746,13.3929545 15.5956271,13.3509091 15.5956271,13.3134091 C15.5956271,13.2270455 15.5910169,13.1475 15.5806441,13.0781818 L13.4415254,13.0781818 L13.4415254,16.9134091 L15.6221356,16.9134091 C15.6290508,16.8781818 15.6348136,16.8406818 15.6359661,16.7975 C15.6405763,16.7554545 15.6405763,16.7111364 15.6405763,16.6736364 C15.6405763,16.5895455 15.633661,16.5111364 15.6221356,16.4406818 L13.9935932,16.4406818 L13.9935932,15.1270455 L15.2625424,15.1270455 C15.2694576,15.0906818 15.2752203,15.0509091 15.2775254,15.0088636 C15.2798305,14.9668182 15.2821356,14.9247727 15.2821356,14.8872727 C15.2821356,14.8475 15.2798305,14.8065909 15.2775254,14.7668182 C15.2752203,14.7247727 15.2694576,14.6872727 15.2625424,14.6520455 L13.9935932,14.6520455 L13.9935932,13.5509091 L15.5806441,13.5509091 Z" id="Fill-24" fill="#FEFEFE" mask="url(#mask-2)"></path>
                    <path d="M14.6160814,3.63886364 C14.6022508,3.68090909 14.5549966,3.70818182 14.5100475,3.69909091 C14.5008271,3.69909091 13.8646237,3.56386364 12.8803525,3.56386364 C12.2844881,3.56386364 11.6805559,3.615 11.0927593,3.71159091 C9.16225085,4.0275 7.95669153,4.82409091 7.94401356,4.83090909 C7.92557288,4.84227273 7.90943729,4.84568182 7.89214915,4.84568182 C7.86564068,4.84568182 7.84028475,4.83772727 7.82184407,4.815 C7.78842034,4.77977273 7.78842034,4.72863636 7.82184407,4.69340909 C7.83797966,4.6775 9.45845424,2.93772727 11.9871322,2.93772727 C12.838861,2.93772727 13.7101831,3.13545455 14.5676746,3.52522727 C14.6091661,3.54568182 14.6322169,3.59454545 14.6160814,3.63886364 M17.039878,4.10477273 C14.9606915,1.94795455 12.3766915,1.41045455 10.3608949,1.79 C8.78997966,2.08318182 7.96936949,2.92181818 7.2271322,3.75022727 C6.21750508,4.87295455 5.08109831,4.55136364 5.08109831,4.55136364 C5.08109831,4.55136364 5.44069153,4.93090909 6.78225085,5.81840909 C7.72733559,6.44227273 8.92252203,6.57522727 10.1338441,6.515 C13.1615729,6.36386364 14.9042169,2.70704545 17.1389966,5.95136364 C18.0921492,7.33431818 18.6453695,9.00590909 18.6453695,10.8036364 C18.6453695,15.5797727 14.7175051,19.4525 9.87567458,19.4525 L9.74889492,19.4525 C4.83791186,19.4525 0.855877966,15.3354545 0.855877966,10.2593182 C0.855877966,5.74340909 4.00462373,1.99227273 8.15262373,1.21272727 C3.52055593,2.01613636 -0.000461016949,6.0025 -0.000461016949,10.8036364 C-0.000461016949,16.1809091 4.42069153,20.5422727 9.87567458,20.5422727 C15.3306576,20.5422727 19.7529627,16.1809091 19.7529627,10.8036364 C19.7529627,8.20704545 18.7214373,5.84909091 17.039878,4.10477273" id="Fill-25" fill="#FEFEFE" mask="url(#mask-2)"></path>
                    <path d="M29.4078102,16.67375 L28.8926237,15.2510227 L28.8857085,15.2510227 L28.3601492,16.67375 L29.4078102,16.67375 Z M29.1231322,14.8851136 L30.3309966,17.9339773 L29.8757424,17.9339773 L29.5380475,17.0157955 L28.2287593,17.0157955 L27.8841492,17.9339773 L27.4634712,17.9339773 L28.6690305,14.8851136 L29.1231322,14.8851136 Z" id="Fill-26" fill="#FEFEFE" mask="url(#mask-2)"></path>
                    <path d="M31.8513153,16.3430682 C32.0864339,16.3476136 32.2570102,16.3010227 32.3630441,16.2032955 C32.4725356,16.1055682 32.5267051,15.9657955 32.5267051,15.7839773 C32.5267051,15.6044318 32.4725356,15.4646591 32.3630441,15.3692045 C32.2570102,15.27375 32.0864339,15.2248864 31.8513153,15.2248864 L31.0468407,15.2248864 L31.0468407,16.3430682 L31.8513153,16.3430682 Z M31.9896203,14.8851136 C32.3031119,14.8851136 32.5393831,14.9623864 32.6961288,15.1226136 C32.8563322,15.2794318 32.9381627,15.4998864 32.9381627,15.7839773 C32.9381627,16.0703409 32.8563322,16.2919318 32.6961288,16.4498864 C32.5393831,16.6089773 32.3031119,16.6896591 31.9896203,16.6873864 L31.0468407,16.6873864 L31.0468407,17.9339773 L30.6342305,17.9339773 L30.6342305,14.8851136 L31.9896203,14.8851136 Z" id="Fill-27" fill="#FEFEFE" mask="url(#mask-2)"></path>
                    <path d="M34.6594847,16.3430682 C34.8934508,16.3476136 35.0651797,16.3010227 35.170061,16.2032955 C35.2807051,16.1055682 35.3348746,15.9657955 35.3348746,15.7839773 C35.3348746,15.6044318 35.2807051,15.4646591 35.170061,15.3692045 C35.0651797,15.27375 34.8934508,15.2248864 34.6594847,15.2248864 L33.8538576,15.2248864 L33.8538576,16.3430682 L34.6594847,16.3430682 Z M34.7966373,14.8851136 C35.1101288,14.8851136 35.3464,14.9623864 35.5042983,15.1226136 C35.6633492,15.2794318 35.7463322,15.4998864 35.7463322,15.7839773 C35.7463322,16.0703409 35.6633492,16.2919318 35.5042983,16.4498864 C35.3464,16.6089773 35.1101288,16.6896591 34.7966373,16.6873864 L33.8538576,16.6873864 L33.8538576,17.9339773 L33.4412475,17.9339773 L33.4412475,14.8851136 L34.7966373,14.8851136 Z" id="Fill-28" fill="#FEFEFE" mask="url(#mask-2)"></path>
                    <path d="M37.7907119,16.2676136 C37.876,16.2539773 37.9509153,16.2255682 38.0166102,16.1835227 C38.0811525,16.14375 38.1330169,16.0880682 38.1733559,16.0164773 C38.2125424,15.9505682 38.2321356,15.8573864 38.2321356,15.7460227 C38.2321356,15.5926136 38.1871864,15.46875 38.1018983,15.3710227 C38.0154576,15.2755682 37.8748475,15.2244318 37.6800678,15.2244318 L36.6600678,15.2244318 L36.6600678,16.2892045 L37.5164068,16.2892045 C37.6120678,16.2892045 37.7031186,16.2835227 37.7907119,16.2676136 L37.7907119,16.2676136 Z M37.7031186,14.8846591 C37.9970169,14.8846591 38.2275254,14.95625 38.3911864,15.0982955 C38.5583051,15.2403409 38.6412881,15.4346591 38.6412881,15.6835227 C38.6412881,15.8676136 38.5986441,16.0301136 38.515661,16.1698864 C38.4292203,16.3096591 38.2932203,16.4028409 38.1053559,16.45625 L38.1053559,16.4653409 C38.1941017,16.4801136 38.2678644,16.5096591 38.3266441,16.5494318 C38.3819661,16.5892045 38.4257627,16.6357955 38.4568814,16.69375 C38.4926102,16.7494318 38.5168136,16.8085227 38.5317966,16.8778409 C38.5467797,16.9471591 38.5606102,17.0176136 38.5698305,17.0914773 C38.5744407,17.1664773 38.5790508,17.2414773 38.5825085,17.3176136 C38.5848136,17.3948864 38.5917288,17.46875 38.6032542,17.54375 C38.6147797,17.61875 38.6320678,17.6880682 38.6528136,17.7539773 C38.6735593,17.8232955 38.7069831,17.88125 38.7519322,17.9346591 L38.2932203,17.9346591 C38.2609492,17.9005682 38.2459661,17.8585227 38.2332881,17.8028409 C38.2229153,17.7505682 38.216,17.6903409 38.2136949,17.6232955 C38.2125424,17.5573864 38.2067797,17.4857955 38.2056271,17.4085227 C38.2021695,17.3301136 38.1929492,17.2551136 38.1791186,17.1823864 C38.1687458,17.1085227 38.1526102,17.0357955 38.135322,16.96875 C38.1180339,16.9017045 38.0915254,16.8448864 38.0557966,16.7960227 C38.0166102,16.7448864 37.9658983,16.7051136 37.9082712,16.6755682 C37.8471864,16.6448864 37.7665085,16.6289773 37.6650847,16.6289773 L36.6600678,16.6289773 L36.6600678,17.9346591 L36.2463051,17.9346591 L36.2463051,14.8846591 L37.7031186,14.8846591 Z" id="Fill-29" fill="#FEFEFE" mask="url(#mask-2)"></path>
                    <path d="M39.5128407,16.8623864 C39.5531797,17.0135227 39.617722,17.14875 39.7041627,17.2657955 C39.7894508,17.38625 39.9012475,17.4817045 40.0372475,17.5544318 C40.1709424,17.6282955 40.3346034,17.6635227 40.5224678,17.6635227 C40.7114847,17.6635227 40.8728407,17.6282955 41.0076881,17.5544318 C41.1425356,17.4817045 41.2531797,17.38625 41.3396203,17.2657955 C41.4272136,17.14875 41.4917559,17.0135227 41.5320949,16.8623864 C41.5724339,16.7135227 41.5931797,16.5623864 41.5931797,16.4101136 C41.5931797,16.2567045 41.5724339,16.1032955 41.5320949,15.9521591 C41.4917559,15.8032955 41.4272136,15.6703409 41.3396203,15.5510227 C41.2531797,15.4305682 41.1425356,15.3328409 41.0076881,15.2623864 C40.8728407,15.1885227 40.7114847,15.1510227 40.5224678,15.1510227 C40.3346034,15.1510227 40.1709424,15.1885227 40.0372475,15.2623864 C39.9012475,15.3328409 39.7894508,15.4305682 39.7041627,15.5510227 C39.617722,15.6703409 39.5531797,15.8032955 39.5128407,15.9521591 C39.4725017,16.1032955 39.454061,16.2567045 39.454061,16.4101136 C39.454061,16.5623864 39.4725017,16.7135227 39.5128407,16.8623864 M39.1348068,15.8101136 C39.1958915,15.6169318 39.2904,15.4442045 39.413722,15.2976136 C39.5370441,15.1510227 39.6926373,15.0317045 39.8770441,14.9453409 C40.0626034,14.8555682 40.2781288,14.81125 40.5224678,14.81125 C40.7691119,14.81125 40.9823322,14.8555682 41.1678915,14.9453409 C41.3534508,15.0317045 41.506739,15.1510227 41.6312136,15.2976136 C41.7568407,15.4442045 41.846739,15.6169318 41.9101288,15.8101136 C41.9735186,16.0010227 42.0023322,16.2010227 42.0023322,16.4101136 C42.0023322,16.6157955 41.9735186,16.8157955 41.9101288,17.0089773 C41.846739,17.2021591 41.7568407,17.3703409 41.6312136,17.5192045 C41.506739,17.6680682 41.3534508,17.7851136 41.1678915,17.8703409 C40.9823322,17.9589773 40.7691119,18.0010227 40.5224678,18.0010227 C40.2781288,18.0010227 40.0626034,17.9589773 39.8770441,17.8703409 C39.6926373,17.7851136 39.5370441,17.6680682 39.413722,17.5192045 C39.2904,17.3703409 39.1958915,17.2021591 39.1348068,17.0089773 C39.0714169,16.8157955 39.0402983,16.6157955 39.0402983,16.4101136 C39.0402983,16.2010227 39.0714169,16.0010227 39.1348068,15.8101136" id="Fill-30" fill="#FEFEFE" mask="url(#mask-2)"></path>
                    <polygon id="Fill-31" fill="#FEFEFE" mask="url(#mask-2)" points="43.2562983 17.9344318 42.1694508 14.8844318 42.6085695 14.8844318 43.493722 17.52875 43.5006373 17.52875 44.3950102 14.8844318 44.8226034 14.8844318 43.723078 17.9344318"></polygon>
                    <polygon id="Fill-32" fill="#FEFEFE" mask="url(#mask-2)" points="47.2890441 14.8848864 47.2890441 15.2246591 45.5636881 15.2246591 45.5636881 16.1939773 47.1714847 16.1939773 47.1714847 16.5360227 45.5636881 16.5360227 45.5636881 17.5928409 47.3028746 17.5928409 47.3028746 17.9348864 45.1522305 17.9348864 45.1522305 14.8848864"></polygon>
                    <path d="M48.8952271,17.5926136 C48.9424814,17.5926136 48.9989559,17.5880682 49.0681085,17.58125 C49.1384136,17.5744318 49.2121763,17.5573864 49.2882441,17.5278409 C49.3677695,17.5017045 49.4438373,17.4619318 49.5210576,17.4130682 C49.5971254,17.3619318 49.666278,17.2903409 49.7273627,17.2017045 C49.7872949,17.1153409 49.8357017,17.0039773 49.8760407,16.8710227 C49.9152271,16.7403409 49.9348203,16.5778409 49.9348203,16.3914773 C49.9348203,16.2096591 49.9175322,16.0460227 49.8806508,15.9039773 C49.844922,15.7573864 49.7838373,15.6369318 49.7031593,15.5346591 C49.6201763,15.4346591 49.5141424,15.3573864 49.3839051,15.3039773 C49.2548203,15.2505682 49.0957695,15.2244318 48.9032949,15.2244318 L48.2106169,15.2244318 L48.2106169,17.5926136 L48.8952271,17.5926136 Z M48.8618034,14.8846591 C49.3366508,14.8846591 49.7031593,15.0051136 49.9624814,15.2426136 C50.2160407,15.48125 50.3474305,15.8460227 50.3474305,16.3357955 C50.3474305,16.5914773 50.3151593,16.8198864 50.2598373,17.0153409 C50.2010576,17.2153409 50.1134644,17.38125 49.9901424,17.5176136 C49.8691254,17.6505682 49.7135322,17.7539773 49.5256678,17.8278409 C49.3389559,17.8982955 49.1153627,17.9346591 48.8618034,17.9346591 L47.7991593,17.9346591 L47.7991593,14.8846591 L48.8618034,14.8846591 Z" id="Fill-33" fill="#FEFEFE" mask="url(#mask-2)"></path>
                    <polygon id="Fill-34" fill="#FEFEFE" mask="url(#mask-2)" points="30.0133559 10.0642045 32.924678 10.0642045 32.924678 8.98579545 28.9610847 8.98579545 28.9218983 8.98579545 28.9218983 12.8278409 29.9822373 12.8278409 29.9822373 10.0823864"></polygon>
                    <path d="M28.9215525,5.21022727 L36.8752475,5.21022727 L36.8925356,5.20340909 C38.6098237,5.21931818 39.9963322,6.59090909 39.9963322,8.28181818 C39.9963322,9.97727273 38.6052136,11.3488636 36.8833153,11.3625 L36.8556542,11.3625 L34.9090102,11.3579545 L34.9090102,7.47159091 L36.0073831,7.47159091 L36.0073831,10.3022727 L36.100739,10.3 L36.8591119,10.3 L36.9017559,10.3 C38.0139593,10.2772727 38.9071797,9.38522727 38.9071797,8.28863636 C38.9071797,7.18295455 38.0035864,6.28863636 36.8833153,6.27386364 L30.0084,6.27386364 L29.9818915,6.27386364 L29.9818915,7.45 L29.9841966,7.46931818 L32.9151119,7.47159091 L32.919722,8.55227273 L28.933078,8.55227273 L28.9215525,8.55 L28.9215525,5.21022727 Z" id="Fill-35" fill="#FEFEFE" mask="url(#mask-2)"></path>
                    <polygon id="Fill-36" fill="#FEFEFE" mask="url(#mask-2)" points="44.852339 3.79420455 49.6595932 11.78625 50.347661 10.6635227 46.0878644 3.79420455"></polygon>
                    <polygon id="Fill-37" fill="#FEFEFE" mask="url(#mask-2)" points="39.9213017 12.8273864 44.8507254 4.73079545 48.9157424 11.3648864 43.3109288 11.3648864 43.3109288 10.3307955 46.9506576 10.3307955 44.8507254 6.87738636 41.4080814 12.8273864"></polygon>
                    <polygon id="Fill-38" fill="#FEFEFE" mask="url(#mask-2)" points="49.659478 11.7864773 43.3112746 11.7819318 43.3112746 12.8273864 49.0371051 12.8273864 49.0451729 12.8035227"></polygon>
                    <path d="M33.3561898,11.7509091 L33.3584949,7.47136364 L34.4580203,7.47136364 L34.4580203,11.7509091 L34.4580203,11.76 L36.8587661,11.76 L36.884122,11.7622727 C38.828461,11.7463636 40.4016814,10.1929545 40.4016814,8.27931818 C40.4016814,6.36909091 38.8342237,4.81454545 36.8921898,4.7975 L36.8587661,4.7975 L28.5281898,4.7975 L28.5281898,12.8270455 L27.4632407,12.8270455 L27.4655458,3.75204545 L36.8587661,3.75204545 L36.9014102,3.75204545 C39.1373424,3.7725 40.9883254,5.30545455 41.3928678,7.39181818 L43.6207322,3.79409091 L44.8528,3.79409091 L41.0286644,10.1111364 L40.6610034,10.7304545 C39.8346305,11.9190909 38.4700203,12.8054545 36.9014102,12.8179545 L36.8587661,12.8179545 L33.3561898,12.8179545 L33.3561898,11.7509091 Z" id="Fill-39" fill="#FEFEFE" mask="url(#mask-2)"></path>
                    <path d="M193.986712,10.8776136 C193.986712,6.73215909 197.39478,3.36738636 201.603864,3.36738636 C201.860881,3.36738636 202.115593,3.37988636 202.365695,3.40602273 L202.365695,5.67647727 C202.117898,5.64011364 201.863186,5.62079545 201.603864,5.62079545 C199.052136,5.62079545 196.915322,7.39238636 196.39322,9.75488636 L200.840881,9.75488636 L200.840881,12.0060227 L196.39322,12.0060227 C196.915322,14.3685227 199.052136,16.1367045 201.603864,16.1367045 C201.863186,16.1367045 202.117898,16.1173864 202.365695,16.0844318 L202.365695,18.35375 C202.115593,18.3776136 201.860881,18.3901136 201.603864,18.3901136 C197.39478,18.3901136 193.986712,15.02875 193.986712,10.8776136 M181.032136,10.8776136 C181.032136,6.73215909 184.444814,3.36738636 188.651593,3.36738636 C188.910915,3.36738636 189.164475,3.37988636 189.412271,3.40602273 L189.412271,5.67647727 C189.164475,5.64011364 188.910915,5.62079545 188.651593,5.62079545 C185.706847,5.62079545 183.31878,7.97647727 183.31878,10.8776136 C183.31878,13.7821591 185.706847,16.1367045 188.651593,16.1367045 C188.910915,16.1367045 189.164475,16.1173864 189.412271,16.0844318 L189.412271,18.35375 C189.164475,18.3776136 188.910915,18.3901136 188.651593,18.3901136 C184.444814,18.3901136 181.032136,15.02875 181.032136,10.8776136" id="Fill-40" fill="#FEFEFE" mask="url(#mask-2)"></path>
                    <path d="M208.028827,13.0160227 C208.229369,13.0160227 208.393031,12.9592045 208.531336,12.8467045 C208.663878,12.7319318 208.769912,12.5773864 208.848285,12.3842045 C208.926658,12.1910227 208.980827,11.96375 209.013098,11.7057955 C209.044217,11.4455682 209.060353,11.1705682 209.060353,10.8785227 C209.060353,10.5864773 209.044217,10.3114773 209.013098,10.0557955 C208.980827,9.79784091 208.926658,9.57170455 208.848285,9.37511364 C208.769912,9.17965909 208.663878,9.02397727 208.531336,8.91147727 C208.393031,8.79670455 208.229369,8.73988636 208.028827,8.73988636 C207.823675,8.73988636 207.655403,8.79670455 207.525166,8.91147727 C207.393776,9.02397727 207.287742,9.17965909 207.209369,9.37511364 C207.133302,9.57170455 207.079132,9.79784091 207.044556,10.0557955 C207.013437,10.3114773 206.997302,10.5864773 206.997302,10.8785227 C206.997302,11.1705682 207.013437,11.4455682 207.044556,11.7057955 C207.079132,11.96375 207.133302,12.1910227 207.209369,12.3842045 C207.287742,12.5773864 207.393776,12.7319318 207.525166,12.8467045 C207.655403,12.9592045 207.823675,13.0160227 208.028827,13.0160227 M208.028827,7.98420455 C208.434522,7.98420455 208.760692,8.07511364 209.014251,8.25806818 C209.273573,8.44102273 209.47181,8.67511364 209.613573,8.95920455 C209.755336,9.24215909 209.852149,9.55352273 209.904014,9.89329545 C209.955878,10.2319318 209.982386,10.5603409 209.982386,10.8785227 C209.982386,11.1955682 209.955878,11.5251136 209.904014,11.86375 C209.852149,12.2035227 209.755336,12.5148864 209.613573,12.7978409 C209.47181,13.0830682 209.273573,13.3160227 209.014251,13.4978409 C208.760692,13.6807955 208.434522,13.7717045 208.028827,13.7717045 C207.627742,13.7717045 207.296963,13.6807955 207.043403,13.4978409 C206.788692,13.3160227 206.588149,13.0830682 206.444081,12.7978409 C206.302319,12.5148864 206.205505,12.2035227 206.155946,11.86375 C206.101776,11.5251136 206.079878,11.1955682 206.079878,10.8785227 C206.079878,10.5603409 206.101776,10.2319318 206.155946,9.89329545 C206.205505,9.55352273 206.302319,9.24215909 206.444081,8.95920455 C206.588149,8.67511364 206.788692,8.44102273 207.043403,8.25806818 C207.296963,8.07511364 207.627742,7.98420455 208.028827,7.98420455" id="Fill-41" fill="#FEFEFE" mask="url(#mask-2)"></path>
                    <path d="M217.129763,13.1181818 C217.328,13.1181818 217.493966,13.0613636 217.627661,12.9488636 C217.764814,12.8340909 217.868542,12.6795455 217.946915,12.4863636 C218.022983,12.2931818 218.079458,12.0659091 218.114034,11.8079545 C218.145153,11.5477273 218.161288,11.2727273 218.161288,10.9806818 C218.161288,10.6886364 218.145153,10.4136364 218.114034,10.1579545 C218.079458,9.9 218.022983,9.67386364 217.946915,9.47727273 C217.868542,9.28181818 217.764814,9.12613636 217.627661,9.01363636 C217.493966,8.89886364 217.328,8.84204545 217.129763,8.84204545 C216.92461,8.84204545 216.756339,8.89886364 216.626102,9.01363636 C216.492407,9.12613636 216.388678,9.28181818 216.310305,9.47727273 C216.231932,9.67386364 216.175458,9.9 216.144339,10.1579545 C216.112068,10.4136364 216.097085,10.6886364 216.097085,10.9806818 C216.097085,11.2727273 216.112068,11.5477273 216.144339,11.8079545 C216.175458,12.0659091 216.231932,12.2931818 216.310305,12.4863636 C216.388678,12.6795455 216.492407,12.8340909 216.626102,12.9488636 C216.756339,13.0613636 216.92461,13.1181818 217.129763,13.1181818 M217.129763,8.08636364 C217.530847,8.08636364 217.861627,8.17727273 218.115186,8.36022727 C218.369898,8.54318182 218.570441,8.77727273 218.714508,9.06136364 C218.856271,9.34431818 218.953085,9.65568182 219.002644,9.99545455 C219.054508,10.3340909 219.078712,10.6625 219.078712,10.9806818 C219.078712,11.2977273 219.054508,11.6272727 219.002644,11.9659091 C218.953085,12.3056818 218.856271,12.6170455 218.714508,12.9 C218.570441,13.1852273 218.369898,13.4181818 218.115186,13.6 C217.861627,13.7829545 217.530847,13.8738636 217.129763,13.8738636 C216.724068,13.8738636 216.395593,13.7829545 216.142034,13.6 C215.885017,13.4181818 215.684475,13.1852273 215.542712,12.9 C215.400949,12.6170455 215.304136,12.3056818 215.254576,11.9659091 C215.202712,11.6272727 215.176203,11.2977273 215.176203,10.9806818 C215.176203,10.6625 215.202712,10.3340909 215.254576,9.99545455 C215.304136,9.65568182 215.400949,9.34431818 215.542712,9.06136364 C215.684475,8.77727273 215.885017,8.54318182 216.142034,8.36022727 C216.395593,8.17727273 216.724068,8.08636364 217.129763,8.08636364" id="Fill-42" fill="#FEFEFE" mask="url(#mask-2)"></path>
                    <path d="M210.680481,8.09545455 L214.543803,8.09545455 L214.543803,8.85113636 C214.246447,9.17954545 213.98021,9.52045455 213.734719,9.87272727 C213.493837,10.225 213.285227,10.5988636 213.103125,10.9943182 C212.924481,11.3886364 212.775803,11.8056818 212.664007,12.2454545 C212.551058,12.6852273 212.47499,13.1579545 212.438108,13.6613636 L211.429634,13.6613636 C211.461905,13.2215909 211.537973,12.7863636 211.660142,12.3568182 C211.778854,11.9284091 211.936753,11.5113636 212.128075,11.1090909 C212.317092,10.7068182 212.541837,10.3193182 212.791939,9.94886364 C213.044346,9.57727273 213.318651,9.23068182 213.606786,8.90681818 L210.680481,8.90681818 L210.680481,8.09545455 Z" id="Fill-43" fill="#FEFEFE" mask="url(#mask-2)"></path>
                    <path d="M221.719763,13.0160227 C221.920305,13.0160227 222.086271,12.9592045 222.222271,12.8467045 C222.354814,12.7319318 222.460847,12.5773864 222.53922,12.3842045 C222.617593,12.1910227 222.671763,11.96375 222.704034,11.7057955 C222.735153,11.4455682 222.754746,11.1705682 222.754746,10.8785227 C222.754746,10.5864773 222.735153,10.3114773 222.704034,10.0557955 C222.671763,9.79784091 222.617593,9.57170455 222.53922,9.37511364 C222.460847,9.17965909 222.354814,9.02397727 222.222271,8.91147727 C222.086271,8.79670455 221.920305,8.73988636 221.719763,8.73988636 C221.516915,8.73988636 221.350949,8.79670455 221.216102,8.91147727 C221.084712,9.02397727 220.978678,9.17965909 220.904915,9.37511364 C220.826542,9.57170455 220.770068,9.79784091 220.737797,10.0557955 C220.704373,10.3114773 220.688237,10.5864773 220.688237,10.8785227 C220.688237,11.1705682 220.704373,11.4455682 220.737797,11.7057955 C220.770068,11.96375 220.826542,12.1910227 220.904915,12.3842045 C220.978678,12.5773864 221.084712,12.7319318 221.216102,12.8467045 C221.350949,12.9592045 221.516915,13.0160227 221.719763,13.0160227 M221.719763,7.98420455 C222.125458,7.98420455 222.451627,8.07511364 222.709797,8.25806818 C222.964508,8.44102273 223.162746,8.67511364 223.304508,8.95920455 C223.446271,9.24215909 223.54539,9.55352273 223.597254,9.89329545 C223.646814,10.2319318 223.673322,10.5603409 223.673322,10.8785227 C223.673322,11.1955682 223.646814,11.5251136 223.597254,11.86375 C223.54539,12.2035227 223.446271,12.5148864 223.304508,12.7978409 C223.162746,13.0830682 222.964508,13.3160227 222.709797,13.4978409 C222.451627,13.6807955 222.125458,13.7717045 221.719763,13.7717045 C221.318678,13.7717045 220.987898,13.6807955 220.734339,13.4978409 C220.479627,13.3160227 220.279085,13.0830682 220.137322,12.7978409 C219.993254,12.5148864 219.898746,12.2035227 219.846881,11.86375 C219.795017,11.5251136 219.770814,11.1955682 219.770814,10.8785227 C219.770814,10.5603409 219.795017,10.2319318 219.846881,9.89329545 C219.898746,9.55352273 219.993254,9.24215909 220.137322,8.95920455 C220.279085,8.67511364 220.479627,8.44102273 220.734339,8.25806818 C220.987898,8.07511364 221.318678,7.98420455 221.719763,7.98420455" id="Fill-44" fill="#FEFEFE" mask="url(#mask-2)"></path>
                    <path d="M232.184847,17.8267045 L244.071017,17.8267045 L244.071017,11.7767045 C244.071017,11.4664773 244.326881,11.2142045 244.642678,11.2142045 L245.108305,11.2142045 L241.889254,7.96420455 C241.785525,7.85965909 241.726746,7.71875 241.726746,7.57215909 L241.726746,4.26420455 L240.804712,4.26420455 L240.804712,5.48806818 C240.804712,5.71761364 240.664102,5.92215909 240.448576,6.00965909 C240.234203,6.09829545 239.988712,6.04715909 239.825051,5.88125 L238.127356,4.17215909 L231.147559,11.2142045 L231.613186,11.2142045 C231.927831,11.2142045 232.184847,11.4664773 232.184847,11.7767045 L232.184847,17.8267045 Z M244.642678,18.9517045 L231.613186,18.9517045 C231.29739,18.9517045 231.041525,18.7005682 231.041525,18.3892045 L231.041525,12.3403409 L229.789864,12.3403409 C229.560508,12.3403409 229.350746,12.2039773 229.260847,11.9948864 C229.173254,11.7869318 229.220508,11.5460227 229.379559,11.3835227 L237.718203,2.97329545 C237.933729,2.75511364 238.320983,2.75511364 238.537661,2.97329545 L239.660237,4.10625 L239.660237,3.70170455 C239.660237,3.39147727 239.917254,3.13920455 240.231898,3.13920455 L242.298407,3.13920455 C242.614203,3.13920455 242.870068,3.39147727 242.870068,3.70170455 L242.870068,7.34147727 L246.875153,11.3835227 C247.037661,11.5460227 247.08261,11.7869318 246.995017,11.9948864 C246.903966,12.2039773 246.695356,12.3403409 246.468305,12.3403409 L245.214339,12.3403409 L245.214339,18.3892045 C245.214339,18.7005682 244.957322,18.9517045 244.642678,18.9517045 L244.642678,18.9517045 Z" id="Fill-45" fill="#FEFEFE" mask="url(#mask-2)"></path>
                    <path d="M268.672264,24.9068182 L256.197146,24.9068182 C255.915925,24.9068182 255.685417,24.6806818 255.685417,24.4022727 L255.685417,22.2193182 C255.685417,21.9409091 255.915925,21.7136364 256.197146,21.7136364 L268.672264,21.7136364 C268.95579,21.7136364 269.182841,21.9409091 269.182841,22.2193182 L269.182841,24.4022727 C269.182841,24.6806818 268.95579,24.9068182 268.672264,24.9068182" id="Fill-46" fill="#FEFEFE" mask="url(#mask-2)"></path>
                    <path d="M265.187668,15.4486364 C264.458108,15.5747727 263.870312,16.0952273 263.647871,16.7793182 L260.412685,16.7793182 L259.86638,16.7793182 C259.774176,16.1509091 259.611668,14.9702273 259.445702,13.4656818 L262.434244,10.5168182 L265.426244,13.4679545 C265.340956,14.2190909 265.259125,14.8895455 265.187668,15.4486364 L265.187668,15.4486364 Z M258.91899,7.04863636 L261.576753,9.67136364 L259.283193,11.9315909 C259.13682,10.4509091 259.001973,8.77704545 258.91899,7.04863636 L258.91899,7.04863636 Z M262.434244,1.77704545 C264.36821,1.77704545 265.565702,2.28272727 265.917227,3.20431818 L258.954719,3.20431818 C259.305092,2.28272727 260.501431,1.77704545 262.434244,1.77704545 L262.434244,1.77704545 Z M258.841769,4.40204545 L266.029024,4.40204545 C266.027871,4.69977273 266.023261,4.99636364 266.016346,5.29409091 L262.434244,8.82477273 L258.8556,5.29295455 C258.848685,4.99636364 258.844075,4.69977273 258.841769,4.40204545 L258.841769,4.40204545 Z M265.588753,11.9327273 L263.294041,9.67136364 L265.952956,7.04863636 C265.869973,8.77818182 265.735125,10.4509091 265.588753,11.9327273 L265.588753,11.9327273 Z M266.696346,13.0270455 C266.916481,10.9645455 267.134312,8.39863636 267.216142,5.80431818 L271.463261,1.61454545 C271.701837,1.38045455 271.701837,1.00090909 271.463261,0.767954545 C271.22699,0.535 270.842041,0.535 270.605769,0.767954545 L267.995261,3.34522727 C267.889227,3.26113636 267.762447,3.20431818 267.61838,3.20431818 L267.183871,3.20431818 C267.00638,2.38954545 266.371329,1.20318182 264.280617,0.758863636 C264.294447,0.705454545 264.311736,0.655454545 264.311736,0.598636364 C264.311736,0.267954545 264.039736,-0.000227272727 263.704346,-0.000227272727 L261.169905,-0.000227272727 C260.834515,-0.000227272727 260.561363,0.267954545 260.561363,0.598636364 C260.561363,0.654318182 260.579803,0.705454545 260.593634,0.757727273 C258.499464,1.20090909 257.864414,2.38954545 257.686922,3.20431818 L257.254719,3.20431818 C257.110651,3.20431818 256.985024,3.26113636 256.87899,3.34522727 L254.267329,0.767954545 C254.031058,0.535 253.646108,0.535 253.409837,0.767954545 C253.171261,1.00090909 253.171261,1.38045455 253.409837,1.61454545 L257.655803,5.80318182 C257.736481,8.3975 257.955464,10.9622727 258.173295,13.0247727 L253.405227,17.7270455 C253.168956,17.96 253.168956,18.3395455 253.405227,18.5736364 C253.525092,18.6918182 253.680685,18.7486364 253.835125,18.7486364 C253.990719,18.7486364 254.146312,18.6918182 254.262719,18.5736364 L258.348481,14.5463636 C258.542108,16.1668182 258.706922,17.2418182 258.733431,17.4247727 L258.733431,18.7418182 C258.733431,19.0725 259.006583,19.3406818 259.341973,19.3406818 L260.412685,19.3406818 C260.748075,19.3406818 261.021227,19.0725 261.021227,18.7418182 L261.021227,17.9770455 L263.647871,17.9770455 C263.907193,18.7645455 264.647125,19.3406818 265.529973,19.3406818 C266.628346,19.3406818 267.521566,18.4588636 267.521566,17.3770455 C267.521566,16.6009091 267.058244,15.9327273 266.389769,15.6145455 C266.432414,15.2952273 266.477363,14.935 266.522312,14.5486364 L270.601159,18.5736364 C270.721024,18.6918182 270.876617,18.7486364 271.031058,18.7486364 C271.186651,18.7486364 271.342244,18.6918182 271.460956,18.5736364 C271.697227,18.3395455 271.697227,17.96 271.460956,17.7270455 L266.696346,13.0270455 Z" id="Fill-47" fill="#FEFEFE" mask="url(#mask-2)"></path>
                    <path d="M265.529858,16.6127273 C265.104569,16.6127273 264.757654,16.9570455 264.757654,17.3775 C264.757654,17.8013636 265.104569,18.1422727 265.529858,18.1422727 C265.959756,18.1422727 266.308976,17.8013636 266.308976,17.3775 C266.308976,16.9570455 265.959756,16.6127273 265.529858,16.6127273" id="Fill-48" fill="#FEFEFE" mask="url(#mask-2)"></path>
                    <path d="M67.3246102,12.59875 C66.259661,11.3726136 65.1301695,10.2419318 63.5915254,9.55102273 C64.3948475,9.07034091 65.1797288,8.60215909 65.987661,8.12034091 C66.3841356,8.87261364 66.7725424,9.61465909 67.1759322,10.3828409 C68.3734237,7.96352273 69.6953898,5.69420455 72.0742373,4.25556818 C72.0961356,4.26238636 72.1168814,4.27261364 72.1376271,4.27943182 C72.1284068,4.41125 72.1261017,4.54761364 72.107661,4.68170455 C72.0154576,5.49079545 71.9002034,6.30102273 72.175661,7.10102273 C72.2090847,7.19875 72.2459661,7.29761364 72.2747797,7.38397727 C70.6704407,8.19761364 69.5939661,9.54647727 68.5197966,10.8885227 C68.1117966,11.4010227 67.768339,11.9646591 67.3949153,12.5055682 C67.3787797,12.5317045 67.3534237,12.5567045 67.3246102,12.59875" id="Fill-49" fill="#FEFEFE" mask="url(#mask-2)"></path>
                    <path d="M63.5889898,13.9870455 C63.7468881,13.9870455 63.8621424,13.9529545 63.9405153,13.8847727 C64.0177356,13.8165909 64.0557695,13.7040909 64.0557695,13.5506818 C64.0557695,13.4018182 64.0177356,13.295 63.9405153,13.2290909 C63.8621424,13.1609091 63.7468881,13.1268182 63.5889898,13.1268182 L62.8409898,13.1268182 L62.8409898,13.9870455 L63.5889898,13.9870455 Z M63.8310237,12.6029545 C63.9681763,12.6029545 64.0938034,12.6256818 64.2067525,12.6711364 C64.3185492,12.7143182 64.4119051,12.7756818 64.4948881,12.8529545 C64.573261,12.9268182 64.6331932,13.0188636 64.6758373,13.1211364 C64.7184814,13.2222727 64.7380746,13.3302273 64.7380746,13.4484091 C64.7380746,13.6268182 64.6988881,13.7825 64.6228203,13.9143182 C64.5479051,14.0461364 64.422278,14.1438636 64.2493966,14.2131818 L64.2493966,14.2234091 C64.3323797,14.245 64.4015322,14.2813636 64.4557017,14.3256818 C64.5133288,14.3734091 64.5559729,14.4313636 64.5917017,14.495 C64.6239729,14.5575 64.6504814,14.6290909 64.6666169,14.7052273 C64.6816,14.7836364 64.6931254,14.8609091 64.6988881,14.9381818 C64.7011932,14.9859091 64.7069559,15.0427273 64.709261,15.1075 C64.7115661,15.1734091 64.7184814,15.2427273 64.7242441,15.3109091 C64.7311593,15.3779545 64.7426847,15.4415909 64.7588203,15.5052273 C64.7738034,15.5665909 64.7968542,15.6177273 64.830278,15.6609091 L64.1468203,15.6609091 C64.1110915,15.5643182 64.0868881,15.4495455 64.0788203,15.3143182 C64.0719051,15.1802273 64.0557695,15.0518182 64.0430915,14.9279545 C64.0154305,14.7677273 63.9670237,14.6529545 63.8944136,14.5779545 C63.8171932,14.5029545 63.6938712,14.4643182 63.5221424,14.4643182 L62.8409898,14.4643182 L62.8409898,15.6609091 L62.1586847,15.6609091 L62.1586847,12.6029545 L63.8310237,12.6029545 Z" id="Fill-50" fill="#FEFEFE" mask="url(#mask-2)"></path>
                    <path d="M65.8445153,14.8160227 C65.8618034,14.8978409 65.892922,14.9739773 65.9344136,15.0410227 C65.9782102,15.1080682 66.0312271,15.1626136 66.1003797,15.20125 C66.1695322,15.2444318 66.2594305,15.26375 66.3608542,15.26375 C66.4657356,15.26375 66.5544814,15.2444318 66.6236339,15.20125 C66.6962441,15.1626136 66.7504136,15.1080682 66.7942102,15.0410227 C66.8345492,14.9739773 66.8656678,14.8978409 66.8829559,14.8160227 C66.8990915,14.7307955 66.9083119,14.6455682 66.9083119,14.5569318 C66.9083119,14.4671591 66.8990915,14.3819318 66.8829559,14.2955682 C66.8656678,14.2092045 66.8345492,14.1342045 66.7942102,14.0682955 C66.7504136,14.0023864 66.6962441,13.9501136 66.6236339,13.9080682 C66.5544814,13.8648864 66.4657356,13.8444318 66.3608542,13.8444318 C66.2594305,13.8444318 66.1695322,13.8648864 66.1003797,13.9080682 C66.0312271,13.9501136 65.9782102,14.0023864 65.9344136,14.0682955 C65.892922,14.1342045 65.8618034,14.2092045 65.8445153,14.2955682 C65.8283797,14.3819318 65.8191593,14.4671591 65.8191593,14.5569318 C65.8191593,14.6455682 65.8283797,14.7307955 65.8445153,14.8160227 M65.2855322,14.0728409 C65.3408542,13.9296591 65.4203797,13.8080682 65.5218034,13.7069318 C65.620922,13.6046591 65.7430915,13.5273864 65.8825492,13.4705682 C66.0266169,13.4171591 66.1879729,13.3864773 66.3608542,13.3864773 C66.5394983,13.3864773 66.6973966,13.4171591 66.8403119,13.4705682 C66.9843797,13.5273864 67.1088542,13.6046591 67.2079729,13.7069318 C67.3105492,13.8080682 67.3877695,13.9296591 67.441939,14.0728409 C67.4984136,14.2194318 67.524922,14.3773864 67.524922,14.5569318 C67.524922,14.7330682 67.4984136,14.8921591 67.441939,15.0353409 C67.3877695,15.1773864 67.3105492,15.3001136 67.2079729,15.40125 C67.1088542,15.5035227 66.9843797,15.5796591 66.8403119,15.6353409 C66.6973966,15.68875 66.5394983,15.7160227 66.3608542,15.7160227 C66.1879729,15.7160227 66.0266169,15.68875 65.8825492,15.6353409 C65.7430915,15.5796591 65.620922,15.5035227 65.5218034,15.40125 C65.4203797,15.3001136 65.3408542,15.1773864 65.2855322,15.0353409 C65.2313627,14.8921591 65.2037017,14.7330682 65.2037017,14.5569318 C65.2037017,14.3773864 65.2313627,14.2194318 65.2855322,14.0728409" id="Fill-51" fill="#FEFEFE" mask="url(#mask-2)"></path>
                    <polygon id="Fill-52" fill="#FEFEFE" mask="url(#mask-2)" points="68.7146915 12.6031818 68.7146915 13.7770455 69.9709627 13.7770455 69.9709627 12.6031818 70.6521153 12.6031818 70.6521153 15.66 69.9709627 15.66 69.9709627 14.3406818 68.7146915 14.3406818 68.7146915 15.66 68.0323864 15.66 68.0323864 12.6031818"></polygon>
                    <path d="M71.8154915,14.9047727 C71.8535254,14.9775 71.9007797,15.0354545 71.9618644,15.0797727 C72.0264068,15.1240909 72.1001695,15.1536364 72.1808475,15.1775 C72.2661356,15.2002273 72.3537288,15.2104545 72.4459322,15.2104545 C72.5047119,15.2104545 72.5715593,15.2070455 72.6395593,15.1956818 C72.7087119,15.1854545 72.7744068,15.1661364 72.8354915,15.1377273 C72.8954237,15.1104545 72.9449831,15.0706818 72.9864746,15.0172727 C73.0268136,14.9718182 73.0452542,14.9047727 73.0452542,14.8320455 C73.0452542,14.7445455 73.0198983,14.6786364 72.9668814,14.6297727 C72.9127119,14.5775 72.8424068,14.5343182 72.7559661,14.5013636 C72.6695254,14.4638636 72.5715593,14.4388636 72.4597627,14.4093182 C72.3514237,14.3854545 72.2384746,14.3570455 72.1278305,14.3252273 C72.0114237,14.2968182 71.8984746,14.2627273 71.7878305,14.2206818 C71.678339,14.1775 71.5803729,14.1252273 71.4916271,14.0604545 C71.4074915,13.9934091 71.3360339,13.9104545 71.2807119,13.8138636 C71.2276949,13.7161364 71.2011864,13.5945455 71.2011864,13.4570455 C71.2011864,13.2990909 71.2369153,13.1638636 71.3049153,13.0468182 C71.3717627,12.9320455 71.4605085,12.8365909 71.5711525,12.7604545 C71.6829492,12.6820455 71.8039661,12.6240909 71.9445763,12.5854545 C72.0851864,12.5525 72.2211864,12.5309091 72.3629492,12.5309091 C72.522,12.5309091 72.6787458,12.5490909 72.8262712,12.5843182 C72.9761017,12.6206818 73.1109492,12.6786364 73.2262034,12.7604545 C73.3414576,12.8377273 73.4325085,12.94 73.501661,13.065 C73.5685085,13.1877273 73.6030847,13.3388636 73.6030847,13.5172727 L72.9438305,13.5172727 C72.9369153,13.4252273 72.917322,13.3468182 72.8850508,13.2888636 C72.8504746,13.2297727 72.8055254,13.1809091 72.7513559,13.1468182 C72.6948814,13.115 72.6337966,13.0888636 72.562339,13.0763636 C72.4931864,13.0615909 72.4148136,13.0536364 72.330678,13.0536364 C72.2742034,13.0536364 72.2211864,13.0581818 72.1670169,13.0729545 C72.1105424,13.0843182 72.0609831,13.1036364 72.0171864,13.1309091 C71.9710847,13.1604545 71.9353559,13.1956818 71.9065424,13.24 C71.8765763,13.2809091 71.8627458,13.3354545 71.8627458,13.4013636 C71.8627458,13.4604545 71.8754237,13.5081818 71.8961695,13.5456818 C71.9215254,13.5831818 71.9664746,13.6184091 72.0344746,13.6502273 C72.101322,13.6786364 72.1969831,13.7104545 72.3156949,13.7445455 C72.4344068,13.7740909 72.5946102,13.8138636 72.7859322,13.8627273 C72.8447119,13.8752273 72.9253898,13.8968182 73.0268136,13.9252273 C73.1305424,13.9547727 73.2319661,14.0025 73.3333898,14.0684091 C73.4348136,14.1343182 73.5235593,14.2206818 73.5961695,14.3309091 C73.6699322,14.4411364 73.7079661,14.5820455 73.7079661,14.7536364 C73.7079661,14.8922727 73.6768475,15.0240909 73.6249831,15.1422727 C73.5685085,15.2638636 73.486678,15.365 73.3771864,15.4502273 C73.2723051,15.54 73.1351525,15.6070455 72.9761017,15.6570455 C72.8147458,15.7059091 72.6280339,15.7309091 72.4159661,15.7309091 C72.2453898,15.7309091 72.0805763,15.7081818 71.9215254,15.6661364 C71.7590169,15.6263636 71.6195593,15.5615909 71.4962373,15.4706818 C71.3717627,15.3831818 71.2726441,15.2706818 71.2011864,15.1320455 C71.1285763,14.9956818 71.0963051,14.8343182 71.0997627,14.6468182 L71.7567119,14.6468182 C71.7567119,14.7479545 71.7786102,14.8377273 71.8154915,14.9047727" id="Fill-53" fill="#FEFEFE" mask="url(#mask-2)"></path>
                    <path d="M67.932461,1.21295455 C62.5281898,1.21295455 58.1300881,5.54818182 58.1300881,10.8788636 C58.1300881,16.2061364 62.5281898,20.5425 67.932461,20.5425 C73.3390373,20.5425 77.7359864,16.2061364 77.7359864,10.8788636 C77.7359864,5.54818182 73.3390373,1.21295455 67.932461,1.21295455 M67.932461,2.23 C72.7765966,2.23 76.704461,6.10272727 76.704461,10.8788636 C76.704461,15.6527273 72.7765966,19.5254545 67.932461,19.5254545 C63.0883254,19.5254545 59.1627661,15.6527273 59.1627661,10.8788636 C59.1627661,6.10272727 63.0883254,2.23 67.932461,2.23" id="Fill-54" fill="#FEFEFE" mask="url(#mask-2)"></path>
                </g>
            </g>
        </g>
    </g>
</svg>