<?xml version="1.0" encoding="UTF-8" standalone="no"?>
<svg width="50px" height="50px" viewBox="0 0 50 50" version="1.1" xmlns="http://www.w3.org/2000/svg" xmlns:xlink="http://www.w3.org/1999/xlink">
    <!-- Generator: Sketch 41.2 (35397) - http://www.bohemiancoding.com/sketch -->
    <title>Low Radiation</title>
    <desc>Created with Sketch.</desc>
    <defs>
        <filter x="-50%" y="-50%" width="200%" height="200%" filterUnits="objectBoundingBox" id="filter-1">
            <feOffset dx="0" dy="2" in="SourceAlpha" result="shadowOffsetOuter1"></feOffset>
            <feGaussianBlur stdDeviation="2" in="shadowOffsetOuter1" result="shadowBlurOuter1"></feGaussianBlur>
            <feColorMatrix values="0 0 0 0 0   0 0 0 0 0   0 0 0 0 0  0 0 0 0.5 0" type="matrix" in="shadowBlurOuter1" result="shadowMatrixOuter1"></feColorMatrix>
            <feMerge>
                <feMergeNode in="shadowMatrixOuter1"></feMergeNode>
                <feMergeNode in="SourceGraphic"></feMergeNode>
            </feMerge>
        </filter>
    </defs>
    <g id="Product" stroke="none" stroke-width="1" fill="none" fill-rule="evenodd">
        <g transform="translate(-177.000000, -6271.000000)" id="Features">
            <g transform="translate(175.000000, 6159.000000)">
                <g id="Low-Radiation" filter="url(#filter-1)" transform="translate(2.000000, 112.000000)">
                    <path d="M45.5692308,22.7846154 C45.5692308,34.2635385 36.2635385,43.5692308 24.7846154,43.5692308 C13.3056923,43.5692308 4,34.2635385 4,22.7846154 C4,11.3056923 13.3056923,2 24.7846154,2 C36.2635385,2 45.5692308,11.3056923 45.5692308,22.7846154" id="Fill-1" fill="#FEFEFE"></path>
                    <path d="M43,23 C43,32.9410363 34.9410363,41 25,41 C15.0589637,41 7,32.9410363 7,23 C7,13.0589637 15.0589637,5 25,5 C34.9410363,5 43,13.0589637 43,23" id="Fill-1" fill="#FFCF62"></path>
                    <path d="M36.1311594,13.0579859 C36.0156805,14.0180262 35.9011803,14.9780666 35.7602569,15.9332137 C35.5018975,17.6879051 35.1769908,19.4308529 34.7493276,21.1532494 C34.3304721,22.8404151 33.8313686,24.5011576 33.1042432,26.0855666 C32.6354774,27.1062823 32.0942926,28.0888312 31.2947483,28.8913114 C29.6369417,30.5559685 27.6786943,31.6882484 25.3612881,32.155057 C23.6506352,32.4995363 21.959555,32.4290746 20.3252356,31.783176 C19.7409909,31.5522182 19.1929557,31.2322048 18.5920742,30.9347 C17.4226061,32.1853947 16.515412,33.6875984 15.6140898,35.2152467 C14.9036012,35.024413 14.1901768,34.8345579 13.4806669,34.6447028 C17.2376442,29.0038543 21.788294,24.1508065 27.403698,20.3302179 C27.3273646,20.308688 27.283326,20.3263034 27.2422234,20.3497906 C24.6126328,21.8441653 22.0437176,23.4324889 19.6499779,25.2889583 C18.6047964,26.0992675 17.6016962,26.9575299 16.7737715,27.9997755 C16.6622072,28.1406988 16.5594506,28.2894513 16.4155913,28.4841995 C16.2198645,28.0261986 16.0153299,27.6132149 15.8646202,27.1816371 C15.404662,25.8614594 15.2999482,24.5021362 15.4809955,23.1183472 C15.7745858,20.8635737 16.7356048,18.9190272 18.1839836,17.1839084 C19.4082552,15.7159569 20.9887497,14.8518227 22.7865011,14.3194456 C23.9774991,13.9671372 25.192963,13.7332436 26.424085,13.5884057 C27.5837668,13.4523756 28.7483417,13.3584267 29.9060661,13.2155461 C32.0629763,12.9513148 34.1582325,12.4492753 36.1448602,11.5450172 C36.1810697,11.5283804 36.2202151,11.5195727 36.2789331,11.5 C36.2290228,12.0323771 36.1928133,12.5471388 36.1311594,13.0579859 Z" id="Fill-3" fill="#FFFFFF"></path>
                </g>
            </g>
        </g>
    </g>
</svg>