<?xml version="1.0" encoding="UTF-8" standalone="no"?>
<svg width="50px" height="50px" viewBox="0 0 50 50" version="1.1" xmlns="http://www.w3.org/2000/svg" xmlns:xlink="http://www.w3.org/1999/xlink">
    <!-- Generator: Sketch 41.2 (35397) - http://www.bohemiancoding.com/sketch -->
    <title>BPA Free</title>
    <desc>Created with Sketch.</desc>
    <defs>
        <filter x="-50%" y="-50%" width="200%" height="200%" filterUnits="objectBoundingBox" id="filter-1">
            <feOffset dx="0" dy="2" in="SourceAlpha" result="shadowOffsetOuter1"></feOffset>
            <feGaussianBlur stdDeviation="2" in="shadowOffsetOuter1" result="shadowBlurOuter1"></feGaussianBlur>
            <feColorMatrix values="0 0 0 0 0   0 0 0 0 0   0 0 0 0 0  0 0 0 0.5 0" type="matrix" in="shadowBlurOuter1" result="shadowMatrixOuter1"></feColorMatrix>
            <feMerge>
                <feMergeNode in="shadowMatrixOuter1"></feMergeNode>
                <feMergeNode in="SourceGraphic"></feMergeNode>
            </feMerge>
        </filter>
        <path d="M1.768375,0.77615 C1.377075,0.7998 1.0707,0.835275 0.852475,0.878275 L0.852475,10.146925 C1.1997,10.191 1.57165,10.22325 1.9608,10.254425 C2.353175,10.288825 2.7133,10.3028 3.041175,10.3028 C3.572225,10.3028 4.0635,10.254425 4.5322,10.1609 C4.9966,10.063075 5.4008,9.90935 5.7448,9.6922 C6.0888,9.4858 6.35755,9.19555 6.5618,8.85155 C6.7596,8.5054 6.86065,8.08185 6.86065,7.586275 C6.86065,7.171325 6.797225,6.8198 6.6693,6.534925 C6.5403,6.24575 6.38335,6.008175 6.1791,5.821125 C5.984525,5.633 5.758775,5.481425 5.51475,5.3836 C5.2632,5.281475 5.019175,5.212675 4.774075,5.18795 C4.96865,5.137425 5.14925,5.05035 5.337375,4.937475 C5.517975,4.82245 5.681375,4.6741 5.81575,4.498875 C5.958725,4.3215 6.068375,4.120475 6.150075,3.894725 C6.231775,3.666825 6.272625,3.419575 6.272625,3.14975 C6.272625,2.7133 6.192,2.342425 6.03505,2.0339 C5.870575,1.731825 5.6416,1.47705 5.3535,1.284625 C5.06325,1.093275 4.7085,0.953525 4.309675,0.8643 C3.8958,0.78045 3.449675,0.736375 2.950875,0.736375 C2.55205,0.736375 2.155375,0.749275 1.768375,0.77615 L1.768375,0.77615 Z M2.168275,1.82105 C2.282225,1.80385 2.4166,1.789875 2.58215,1.783425 C2.740175,1.774825 2.907875,1.766225 3.0788,1.766225 C3.656075,1.766225 4.107575,1.8877 4.4462,2.131725 C4.778375,2.3693 4.941775,2.7391 4.941775,3.2293 C4.941775,3.733475 4.78805,4.116175 4.473075,4.37095 C4.1624,4.621425 3.7109,4.75365 3.12395,4.75365 L2.168275,4.75365 L2.168275,1.82105 L2.168275,1.82105 Z M2.632675,9.16545 C2.443475,9.15685 2.288675,9.14395 2.168275,9.1332 L2.168275,5.834025 L3.264775,5.834025 C3.57545,5.834025 3.86785,5.859825 4.137675,5.91465 C4.404275,5.969475 4.640775,6.066225 4.836425,6.199525 C5.027775,6.334975 5.1815,6.50805 5.298675,6.730575 C5.406175,6.947725 5.4653,7.216475 5.4653,7.5336 C5.4653,7.85825 5.404025,8.125925 5.2804,8.336625 C5.163225,8.54625 4.9966,8.719325 4.78805,8.839725 C4.578425,8.9612 4.3387,9.050425 4.0635,9.106325 C3.793675,9.15255 3.496975,9.18265 3.187375,9.18265 C3.004625,9.18265 2.817575,9.17835 2.632675,9.16545 L2.632675,9.16545 Z" id="path-2"></path>
        <path d="M1.67675,0.736375 C1.4768,0.74605 1.2876,0.75465 1.088725,0.76755 C0.895225,0.7783 0.708175,0.796575 0.529725,0.813775 C0.3545,0.830975 0.1997,0.8471 0.069625,0.863225 L0.069625,10.148 C0.1739,10.1652 0.28355,10.1781 0.39965,10.1781 C0.516825,10.1867 0.63185,10.1867 0.727525,10.1867 C0.96725,10.1867 1.185475,10.1738 1.39295,10.148 L1.39295,6.7983 C1.544525,6.8155 1.6789,6.8241 1.804675,6.833775 C1.933675,6.837 2.077725,6.837 2.24435,6.837 C2.6851,6.837 3.120475,6.7854 3.5451,6.691875 C3.97295,6.58975 4.352425,6.418825 4.687825,6.182325 C5.01785,5.9383 5.287675,5.621175 5.494075,5.221275 C5.698325,4.82245 5.801525,4.31935 5.801525,3.72165 C5.801525,3.142225 5.702625,2.66385 5.513425,2.280075 C5.31885,1.897375 5.061925,1.587775 4.739425,1.35665 C4.41155,1.12445 4.029925,0.962125 3.6053,0.863225 C3.17315,0.77185 2.7195,0.72455 2.24435,0.72455 C2.0616,0.72455 1.8724,0.72885 1.67675,0.736375 L1.67675,0.736375 Z M1.7606,5.687825 C1.6531,5.6803 1.533775,5.670625 1.39295,5.651275 L1.39295,1.897375 C1.639125,1.8705 1.920775,1.860825 2.24435,1.860825 C2.555025,1.860825 2.849575,1.8877 3.114025,1.9522 C3.380625,2.0124 3.6139,2.114525 3.806325,2.258575 C3.99875,2.406925 4.150325,2.5972 4.2546,2.8423 C4.3621,3.0831 4.412625,3.37765 4.412625,3.729175 C4.412625,4.1366 4.3578,4.464475 4.232025,4.71495 C4.103025,4.969725 3.935325,5.17075 3.72785,5.318025 C3.52145,5.464225 3.281725,5.567425 3.017275,5.621175 C2.752825,5.676 2.48945,5.7018 2.21855,5.7018 C2.0186,5.7018 1.8638,5.6975 1.7606,5.687825 L1.7606,5.687825 Z" id="path-4"></path>
        <path d="M3.797975,0.8385 C3.67005,0.846025 3.5518,0.86 3.43785,0.8772 L0.387,10.148 C0.4816,10.1652 0.58695,10.177025 0.70735,10.185625 C0.820225,10.189925 0.946,10.198525 1.065325,10.198525 C1.179275,10.198525 1.288925,10.189925 1.402875,10.185625 C1.51575,10.177025 1.632925,10.1652 1.744725,10.148 L2.385425,8.00875 L5.937225,8.00875 L6.58545,10.148 C6.694025,10.1652 6.805825,10.177025 6.924075,10.185625 C7.04555,10.189925 7.15735,10.198525 7.268075,10.198525 C7.388475,10.198525 7.51425,10.189925 7.646475,10.185625 C7.77655,10.177025 7.88835,10.1652 8.00015,10.148 L4.961125,0.8772 C4.83965,0.86 4.713875,0.846025 4.5838,0.8385 C4.4548,0.83205 4.326875,0.826675 4.19895,0.826675 C4.064575,0.826675 3.933425,0.83205 3.797975,0.8385 L3.797975,0.8385 Z M4.157025,2.13065 L5.58785,6.8628 L2.729425,6.8628 L4.157025,2.13065 L4.157025,2.13065 Z" id="path-6"></path>
        <path d="M0.852475,0.575125 L0.852475,7.9206 C0.93095,7.9378 1.018025,7.947475 1.108325,7.951775 C1.200775,7.9593 1.29215,7.964675 1.38245,7.964675 C1.48135,7.964675 1.57165,7.9593 1.65765,7.951775 C1.7415,7.947475 1.82535,7.9378 1.91135,7.9206 L1.91135,4.558 L4.275275,4.558 C4.292475,4.481675 4.301075,4.410725 4.31075,4.3301 C4.313975,4.25055 4.318275,4.1753 4.318275,4.098975 C4.318275,4.02265 4.313975,3.9474 4.31075,3.871075 C4.301075,3.791525 4.292475,3.716275 4.275275,3.63995 L1.91135,3.63995 L1.91135,1.48135 L4.7386,1.48135 C4.752575,1.413625 4.76225,1.3416 4.774075,1.258825 C4.78375,1.1782 4.78375,1.097575 4.78375,1.026625 C4.78375,0.9503 4.78375,0.873975 4.774075,0.79335 C4.76225,0.714875 4.752575,0.64285 4.7386,0.575125 L0.852475,0.575125 L0.852475,0.575125 Z" id="path-8"></path>
        <path d="M1.8662,0.461175 C1.736125,0.469775 1.604975,0.478375 1.4921,0.491275 C1.3674,0.495575 1.243775,0.5074 1.125525,0.519225 C0.9976,0.536425 0.86,0.5461 0.712725,0.5633 L0.712725,7.921675 C0.792275,7.938875 0.880425,7.9464 0.981475,7.9464 C1.076075,7.949625 1.164225,7.949625 1.243775,7.949625 C1.331925,7.949625 1.420075,7.949625 1.512525,7.9464 C1.602825,7.938875 1.6856,7.934575 1.7587,7.921675 L1.7587,1.370625 C1.88555,1.357725 2.00165,1.34375 2.097325,1.33945 C2.196225,1.331925 2.310175,1.327625 2.426275,1.327625 C2.920775,1.327625 3.316375,1.44695 3.606625,1.68775 C3.9001,1.923175 4.0506,2.292975 4.0506,2.781025 C4.0506,3.043325 3.9904,3.27445 3.87215,3.4615 C3.754975,3.649625 3.606625,3.8098 3.43355,3.9431 C3.2551,4.07425 3.0659,4.180675 2.858425,4.264525 C2.652025,4.34085 2.456375,4.408575 2.271475,4.45695 L2.187625,4.47845 L2.187625,4.5193 L4.567675,7.921675 C4.752575,7.9464 4.9364,7.949625 5.12345,7.949625 C5.3578,7.949625 5.569575,7.9464 5.75555,7.921675 L3.589425,4.82675 L3.71735,4.7644 C3.8786,4.68485 4.05275,4.58165 4.225825,4.45695 C4.406425,4.329025 4.563375,4.1753 4.698825,4.010825 C4.8332,3.836675 4.952525,3.64425 5.044975,3.4228 C5.128825,3.206725 5.1772,2.963775 5.1772,2.7004 C5.1772,2.25965 5.0869,1.89415 4.9192,1.598525 C4.752575,1.312575 4.5365,1.08145 4.2656,0.9116 C4.000075,0.74175 3.69155,0.622425 3.3454,0.5504 C2.998175,0.48805 2.652025,0.452575 2.29835,0.452575 C2.1457,0.452575 1.996275,0.452575 1.8662,0.461175 L1.8662,0.461175 Z" id="path-10"></path>
        <path d="M0.411725,0.575125 L0.411725,7.9206 L4.574125,7.9206 C4.5924,7.85395 4.597775,7.781925 4.6053,7.69915 L4.6053,7.461575 C4.6053,7.300325 4.593475,7.1509 4.574125,7.01545 L1.462,7.01545 L1.462,4.49995 L3.8829,4.49995 C3.896875,4.430075 3.909775,4.35375 3.916225,4.2742 C3.920525,4.1925 3.9259,4.111875 3.9259,4.040925 C3.9259,3.9646 3.920525,3.886125 3.916225,3.8098 C3.909775,3.729175 3.896875,3.65715 3.8829,3.589425 L1.462,3.589425 L1.462,1.48135 L4.4935,1.48135 C4.507475,1.413625 4.51285,1.3416 4.515,1.258825 C4.52145,1.1782 4.52145,1.097575 4.52145,1.026625 C4.52145,0.861075 4.51285,0.708425 4.4935,0.575125 L0.411725,0.575125 L0.411725,0.575125 Z" id="path-12"></path>
        <path d="M0.575125,0.575125 L0.575125,7.9206 L4.739675,7.9206 C4.75365,7.85395 4.763325,7.781925 4.76655,7.69915 C4.77515,7.618525 4.77515,7.5336 4.77515,7.461575 C4.77515,7.300325 4.761175,7.1509 4.739675,7.01545 L1.6297,7.01545 L1.6297,4.49995 L4.053825,4.49995 C4.06565,4.430075 4.077475,4.35375 4.081775,4.2742 C4.086075,4.1925 4.090375,4.111875 4.090375,4.040925 C4.090375,3.9646 4.086075,3.886125 4.081775,3.8098 C4.077475,3.729175 4.06565,3.65715 4.053825,3.589425 L1.6297,3.589425 L1.6297,1.48135 L4.6612,1.48135 C4.6741,1.413625 4.68055,1.3416 4.687,1.258825 C4.687,1.1782 4.68915,1.097575 4.68915,1.026625 C4.68915,0.861075 4.68055,0.708425 4.6612,0.575125 L0.575125,0.575125 L0.575125,0.575125 Z" id="path-14"></path>
        <path d="M0.70305,18.794225 C0.70305,29.0938 9.147175,37.445475 19.565,37.445475 C29.9839,37.445475 38.4291,29.0938 38.4291,18.794225 C38.4291,13.821275 36.458625,9.3052 33.2476,5.9641 C29.27655,1.83395 24.341225,0.805175 20.492725,1.531875 C17.491325,2.0941 15.92505,3.699075 14.507125,5.285775 C12.578575,7.435775 10.40815,6.8198 10.40815,6.8198 C10.40815,6.8198 11.094,7.547575 13.657875,9.24715 C15.461725,10.441475 17.745025,10.69625 20.058425,10.581225 C25.84085,10.29205 29.16905,3.288425 33.4368,9.501925 C35.256775,12.150725 36.3135,15.352075 36.3135,18.794225 C36.3135,27.942475 28.81215,35.3589 19.565,35.3589 L19.323125,35.3589 C9.944825,35.3589 2.3392,27.473775 2.3392,17.751475 C2.3392,9.1031 8.351675,1.918875 16.274425,0.4257 C7.42825,1.9651 0.70305,9.59975 0.70305,18.794225 L0.70305,18.794225 Z M15.642325,7.32505 C15.5789,7.257325 15.5789,7.160575 15.642325,7.091775 C15.6735,7.061675 18.768425,3.729175 23.597325,3.729175 C25.2238,3.729175 26.8879,4.10865 28.5262,4.855775 C28.604675,4.894475 28.649825,4.988 28.61865,5.072925 C28.59285,5.15355 28.50255,5.20515 28.415475,5.18795 C28.398275,5.18795 27.183525,4.928875 25.30335,4.928875 C24.164925,4.928875 23.01145,5.0267 21.88915,5.2116 C18.2019,5.816825 15.900325,7.343325 15.8756,7.35515 C15.840125,7.377725 15.810025,7.384175 15.777775,7.384175 C15.726175,7.384175 15.6778,7.36805 15.642325,7.32505 L15.642325,7.32505 Z" id="path-16"></path>
    </defs>
    <g id="Product" stroke="none" stroke-width="1" fill="none" fill-rule="evenodd">
        <g transform="translate(-177.000000, -6215.000000)" id="Features">
            <g transform="translate(175.000000, 6159.000000)">
                <g id="BPA-Free" filter="url(#filter-1)" transform="translate(2.000000, 56.000000)">
                    <g id="Group-5" transform="translate(3.000000, 1.580500)">
                        <path d="M42.46379,21.0860175 C42.46379,32.5444425 33.174715,41.8335175 21.71629,41.8335175 C10.257865,41.8335175 0.96879,32.5444425 0.96879,21.0860175 C0.96879,9.6275925 10.257865,0.3385175 21.71629,0.3385175 C33.174715,0.3385175 42.46379,9.6275925 42.46379,21.0860175" id="Fill-1" fill="#FEFEFE"></path>
                        <path d="M15.2227525,17.2712725 C14.9120775,17.5217475 14.4616525,17.6539725 13.8736275,17.6539725 L12.9179525,17.6539725 L12.9179525,14.7202975 C13.0329775,14.7030975 13.1673525,14.6901975 13.3318275,14.6837475 C13.4909275,14.6751475 13.6575525,14.6665475 13.8295525,14.6665475 C14.4057525,14.6665475 14.8572525,14.7880225 15.1958775,15.0320475 C15.5291275,15.2685475 15.6914525,15.6394225 15.6914525,16.1285475 C15.6914525,16.6337975 15.5377275,17.0164975 15.2227525,17.2712725 M15.5861025,19.0998475 C15.7774525,19.2342225 15.9311775,19.4083725 16.0483525,19.6308975 C16.1558525,19.8480475 16.2149775,20.1157225 16.2149775,20.4339225 C16.2149775,20.7574975 16.1537025,21.0251725 16.0300775,21.2369475 C15.9139775,21.4454975 15.7462775,21.6196475 15.5377275,21.7389725 C15.3281025,21.8615225 15.0883775,21.9507475 14.8131775,22.0066475 C14.5422775,22.0528725 14.2477275,22.0829725 13.9370525,22.0829725 C13.7543025,22.0829725 13.5672525,22.0786725 13.3823525,22.0657725 C13.1931525,22.0571725 13.0394275,22.0442725 12.9179525,22.0335225 L12.9179525,18.7332725 L14.0144525,18.7332725 C14.3251275,18.7332725 14.6175275,18.7601475 14.8884275,18.8138975 C15.1550275,18.8687225 15.3904525,18.9665475 15.5861025,19.0998475 M16.5654275,17.3991975 C16.7084025,17.2207475 16.8191275,17.0207975 16.8997525,16.7950475 C16.9814525,16.5660725 17.0233775,16.3198975 17.0233775,16.0500725 C17.0233775,15.6125475 16.9416775,15.2427475 16.7858025,14.9342225 C16.6202525,14.6310725 16.3912775,14.3762975 16.1031775,14.1849475 C15.8129275,13.9935975 15.4581775,13.8538475 15.0593525,13.7646225 C14.6465525,13.6807725 14.1993525,13.6366975 13.7016275,13.6366975 C13.3006525,13.6366975 12.9050525,13.6495975 12.5180525,13.6753975 C12.1278275,13.7001225 11.8193025,13.7345225 11.6021525,13.7785975 L11.6021525,23.0472475 C11.9493775,23.0913225 12.3213275,23.1235725 12.7115525,23.1536725 C13.1028525,23.1891475 13.4640525,23.2020475 13.7919275,23.2020475 C14.3229775,23.2020475 14.8131775,23.1536725 15.2818775,23.0601475 C15.7462775,22.9623225 16.1515525,22.8096725 16.4955525,22.5925225 C16.8384775,22.3861225 17.1072275,22.0958725 17.3114775,21.7518725 C17.5092775,21.4067975 17.6114025,20.9821725 17.6114025,20.4855225 C17.6114025,20.0716475 17.5469025,19.7201225 17.4200525,19.4341725 C17.2899775,19.1449975 17.1330275,18.9074225 16.9287775,18.7203725 C16.7352775,18.5333225 16.5084525,18.3806725 16.2644275,18.2828475 C16.0128775,18.1807225 15.7688525,18.1129975 15.5248275,18.0871975 C15.7183275,18.0377475 15.8989275,17.9506725 16.0881275,17.8367225 C16.2687275,17.7216975 16.4310525,17.5733475 16.5654275,17.3991975" id="Fill-3" fill="#1DAC89"></path>
                    </g>
                    <g id="Group-9" transform="translate(13.750000, 14.480500)">
                        <mask id="mask-3" fill="white">
                            <use xlink:href="#path-2"></use>
                        </mask>
                        <g id="Clip-7"></g>
                        <polygon id="Fill-6" fill="#1DAC89" mask="url(#mask-3)" points="-441.825 2171.5 214.814025 2171.5 214.814025 -2379.55872 -441.825 -2379.55872"></polygon>
                        <polygon id="Fill-8" fill="#1DAC89" mask="url(#mask-3)" points="-1.884475 13.0376 9.596525 13.0376 9.596525 -1.9995 -1.884475 -1.9995"></polygon>
                    </g>
                    <path d="M26.5073475,19.1959875 C26.3772725,19.4507625 26.2106475,19.6507125 26.0031725,19.7990625 C25.7967725,19.9452625 25.5559725,20.0473875 25.2925975,20.1011375 C25.0281475,20.1559625 24.7636975,20.1817625 24.4927975,20.1817625 C24.2928475,20.1817625 24.1391225,20.1774625 24.0359225,20.1688625 C23.9273475,20.1602625 23.8090975,20.1516625 23.6682725,20.1323125 L23.6682725,16.3773375 C23.9144475,16.3515375 24.1960975,16.3407875 24.5196725,16.3407875 C24.8303475,16.3407875 25.1248975,16.3687375 25.3893475,16.4321625 C25.6559475,16.4934375 25.8892225,16.5955625 26.0805725,16.7385375 C26.2740725,16.8868875 26.4256475,17.0782375 26.5288475,17.3222625 C26.6374225,17.5641375 26.6879475,17.8576125 26.6879475,18.2102125 C26.6879475,18.6176375 26.6331225,18.9455125 26.5073475,19.1959875 M27.0136725,15.8376875 C26.6857975,15.6054875 26.3052475,15.4420875 25.8795475,15.3442625 C25.4484725,15.2528875 24.9948225,15.2045125 24.5196725,15.2045125 C24.3369225,15.2045125 24.1477225,15.2088125 23.9520725,15.2174125 C23.7510475,15.2260125 23.5618475,15.2346125 23.3640475,15.2485875 C23.1705475,15.2593375 22.9834975,15.2765375 22.8050475,15.2937375 C22.6287475,15.3109375 22.4750225,15.3281375 22.3449475,15.3442625 L22.3449475,24.6279625 C22.4481475,24.6451625 22.5588725,24.6591375 22.6749725,24.6591375 C22.7921475,24.6677375 22.9060975,24.6677375 23.0028475,24.6677375 C23.2425725,24.6677375 23.4607975,24.6548375 23.6682725,24.6279625 L23.6682725,21.2782625 C23.8198475,21.2965375 23.9542225,21.3051375 24.0799975,21.3137375 C24.2089975,21.3180375 24.3519725,21.3180375 24.5196725,21.3180375 C24.9604225,21.3180375 25.3957975,21.2653625 25.8204225,21.1718375 C26.2471975,21.0697125 26.6288225,20.8998625 26.9631475,20.6633625 C27.2931725,20.4193375 27.5619225,20.1011375 27.7683225,19.7012375 C27.9736475,19.3024125 28.0768475,18.8003875 28.0768475,18.2016125 C28.0768475,17.6221875 27.9779475,17.1438125 27.7887475,16.7611125 C27.5952475,16.3773375 27.3372475,16.0688125 27.0136725,15.8376875" id="Fill-10" fill="#1DAC89"></path>
                    <g id="Group-15" transform="translate(22.275000, 14.480500)">
                        <mask id="mask-5" fill="white">
                            <use xlink:href="#path-4"></use>
                        </mask>
                        <g id="Clip-13"></g>
                        <polygon id="Fill-12" fill="#1DAC89" mask="url(#mask-5)" points="-450.35 2171.5 206.289025 2171.5 206.289025 -2379.55872 -450.35 -2379.55872"></polygon>
                        <polygon id="Fill-14" fill="#1DAC89" mask="url(#mask-5)" points="-2.66625 12.922575 8.5374 12.922575 8.5374 -2.0124 -2.66625 -2.0124"></polygon>
                    </g>
                    <path d="M30.45378,21.3425475 L31.882455,16.6114725 L33.31328,21.3425475 L30.45378,21.3425475 Z M32.68548,15.3580225 C32.56508,15.3397475 32.439305,15.3268475 32.30923,15.3182475 C32.179155,15.3117975 32.052305,15.3074975 31.92438,15.3074975 C31.790005,15.3074975 31.65778,15.3117975 31.523405,15.3182475 C31.39548,15.3268475 31.27723,15.3397475 31.162205,15.3580225 L28.111355,24.6288225 C28.205955,24.6460225 28.31238,24.6567725 28.43278,24.6653725 C28.545655,24.6696725 28.670355,24.6793475 28.78968,24.6793475 C28.90363,24.6793475 29.014355,24.6696725 29.128305,24.6653725 C29.24118,24.6567725 29.35728,24.6460225 29.470155,24.6288225 L30.110855,22.4895725 L33.662655,22.4895725 L34.309805,24.6288225 C34.41838,24.6460225 34.53018,24.6567725 34.649505,24.6653725 C34.769905,24.6696725 34.88278,24.6793475 34.99243,24.6793475 C35.113905,24.6793475 35.238605,24.6696725 35.37083,24.6653725 C35.500905,24.6567725 35.61378,24.6460225 35.72558,24.6288225 L32.68548,15.3580225 Z" id="Fill-16" fill="#1DAC89"></path>
                    <g id="Group-21" transform="translate(27.725000, 14.480500)">
                        <mask id="mask-7" fill="white">
                            <use xlink:href="#path-6"></use>
                        </mask>
                        <g id="Clip-19"></g>
                        <polygon id="Fill-18" fill="#1DAC89" mask="url(#mask-7)" points="-455.8 2171.5 200.839025 2171.5 200.839025 -2379.55872 -455.8 -2379.55872"></polygon>
                        <polygon id="Fill-20" fill="#1DAC89" mask="url(#mask-7)" points="-2.348875 12.9344 10.7371 12.9344 10.7371 -1.9092 -2.348875 -1.9092"></polygon>
                    </g>
                    <path d="M18.4893525,27.7865275 C18.5022525,27.7188025 18.5108525,27.6467775 18.5248275,27.5650775 C18.5334275,27.4844525 18.5334275,27.4038275 18.5334275,27.3318025 C18.5334275,27.2554775 18.5334275,27.1791525 18.5248275,27.0985275 C18.5108525,27.0200525 18.5022525,26.9491025 18.4893525,26.8813775 L14.6021525,26.8813775 L14.6021525,34.2268525 C14.6817025,34.2440525 14.7677025,34.2526525 14.8569275,34.2569525 C14.9493775,34.2655525 15.0418275,34.2698525 15.1321275,34.2698525 C15.2321025,34.2698525 15.3213275,34.2655525 15.4073275,34.2569525 C15.4911775,34.2526525 15.5750275,34.2440525 15.6610275,34.2268525 L15.6610275,30.8642525 L18.0249525,30.8642525 C18.0421525,30.7879275 18.0518275,30.7159025 18.0604275,30.6352775 C18.0647275,30.5568025 18.0690275,30.4804775 18.0690275,30.4052275 C18.0690275,30.3289025 18.0647275,30.2525775 18.0604275,30.1762525 C18.0518275,30.0977775 18.0421525,30.0214525 18.0249525,29.9451275 L15.6610275,29.9451275 L15.6610275,27.7865275 L18.4893525,27.7865275 Z" id="Fill-22" fill="#1DAC89"></path>
                    <g id="Group-27" transform="translate(13.750000, 26.305500)">
                        <mask id="mask-9" fill="white">
                            <use xlink:href="#path-8"></use>
                        </mask>
                        <g id="Clip-25"></g>
                        <polygon id="Fill-24" fill="#1DAC89" mask="url(#mask-9)" points="-441.825 2159.675 214.814025 2159.675 214.814025 -2391.38372 -441.825 -2391.38372"></polygon>
                        <polygon id="Fill-26" fill="#1DAC89" mask="url(#mask-9)" points="-1.8834 10.70055 7.519625 10.70055 7.519625 -2.16075 -1.8834 -2.16075"></polygon>
                    </g>
                    <path d="M20.991415,26.76646 C20.86134,26.77506 20.729115,26.78366 20.617315,26.79656 C20.49154,26.80086 20.36899,26.81161 20.249665,26.825585 C20.12174,26.842785 19.985215,26.851385 19.83794,26.868585 L19.83794,34.22696 C19.91749,34.24416 20.00564,34.25061 20.10669,34.25061 C20.20129,34.25491 20.28944,34.25491 20.36899,34.25491 C20.456065,34.25491 20.544215,34.25491 20.636665,34.25061 C20.726965,34.24416 20.810815,34.23986 20.883915,34.22696 L20.883915,27.67591 C21.010765,27.66301 21.12579,27.65011 21.22254,27.64581 C21.32144,27.63721 21.436465,27.63291 21.550415,27.63291 C22.04599,27.63291 22.44159,27.752235 22.732915,27.99411 C23.025315,28.22846 23.17474,28.599335 23.17474,29.08631 C23.17474,29.349685 23.115615,29.58081 22.99629,29.76786 C22.88019,29.95491 22.732915,30.11616 22.558765,30.248385 C22.380315,30.379535 22.191115,30.48596 21.98364,30.570885 C21.77724,30.64721 21.58159,30.71386 21.39669,30.762235 L21.31284,30.783735 L21.31284,30.82566 L23.691815,34.22696 C23.876715,34.25061 24.061615,34.25491 24.248665,34.25491 C24.48194,34.25491 24.693715,34.25061 24.880765,34.22696 L22.71464,31.132035 L22.842565,31.06861 C23.003815,30.99121 23.17689,30.88586 23.35104,30.762235 C23.53164,30.63431 23.687515,30.48166 23.82404,30.31611 C23.958415,30.14196 24.07774,29.95061 24.17019,29.728085 C24.25404,29.513085 24.302415,29.26906 24.302415,29.005685 C24.302415,28.56386 24.212115,28.19836 24.044415,27.904885 C23.876715,27.61786 23.661715,27.386735 23.390815,27.216885 C23.124215,27.047035 22.81569,26.92771 22.470615,26.855685 C22.122315,26.79226 21.77724,26.75786 21.42249,26.75786 C21.270915,26.75786 21.12149,26.75786 20.991415,26.76646" id="Fill-28" fill="#1DAC89"></path>
                    <g id="Group-33" transform="translate(19.125000, 26.305500)">
                        <mask id="mask-11" fill="white">
                            <use xlink:href="#path-10"></use>
                        </mask>
                        <g id="Clip-31"></g>
                        <polygon id="Fill-30" fill="#1DAC89" mask="url(#mask-11)" points="-447.2 2159.675 209.439025 2159.675 209.439025 -2391.38372 -447.2 -2391.38372"></polygon>
                        <polygon id="Fill-32" fill="#1DAC89" mask="url(#mask-11)" points="-2.02315 10.686575 8.491425 10.686575 8.491425 -2.2833 -2.02315 -2.2833"></polygon>
                    </g>
                    <path d="M25.98694,34.2264225 L30.14934,34.2264225 C30.16654,34.1586975 30.174065,34.0866725 30.180515,34.0038975 L30.180515,33.7673975 C30.180515,33.6061475 30.16869,33.4556475 30.14934,33.3212725 L27.037215,33.3212725 L27.037215,30.8057725 L29.458115,30.8057725 C29.471015,30.7358975 29.48499,30.6595725 29.49144,30.5789475 C29.49574,30.4983225 29.50004,30.4176975 29.50004,30.3456725 C29.50004,30.2693475 29.49574,30.1919475 29.49144,30.1156225 C29.48499,30.0349975 29.471015,29.9629725 29.458115,29.8952475 L27.037215,29.8952475 L27.037215,27.7860975 L30.06764,27.7860975 C30.083765,27.7194475 30.088065,27.6474225 30.090215,27.5646475 C30.096665,27.4840225 30.096665,27.4033975 30.096665,27.3313725 C30.096665,27.1658225 30.088065,27.0142475 30.06764,26.8809475 L25.98694,26.8809475 L25.98694,34.2264225 Z" id="Fill-34" fill="#1DAC89"></path>
                    <g id="Group-39" transform="translate(25.575000, 26.305500)">
                        <mask id="mask-13" fill="white">
                            <use xlink:href="#path-12"></use>
                        </mask>
                        <g id="Clip-37"></g>
                        <polygon id="Fill-36" fill="#1DAC89" mask="url(#mask-13)" points="-453.65 2159.675 202.989025 2159.675 202.989025 -2391.38372 -453.65 -2391.38372"></polygon>
                        <polygon id="Fill-38" fill="#1DAC89" mask="url(#mask-13)" points="-2.32415 10.656475 7.341175 10.656475 7.341175 -2.16075 -2.32415 -2.16075"></polygon>
                    </g>
                    <path d="M35.6106625,27.7865275 C35.6235625,27.7188025 35.6300125,27.6467775 35.6375375,27.5650775 C35.6375375,27.4844525 35.6396875,27.4038275 35.6396875,27.3318025 C35.6396875,27.1662525 35.6300125,27.0136025 35.6106625,26.8813775 L31.5256625,26.8813775 L31.5256625,34.2268525 L35.6902125,34.2268525 C35.7031125,34.1591275 35.7138625,34.0871025 35.7160125,34.0043275 C35.7246125,33.9237025 35.7246125,33.8387775 35.7246125,33.7667525 C35.7246125,33.6065775 35.7117125,33.4560775 35.6902125,33.3206275 L32.5791625,33.3206275 L32.5791625,30.8051275 L35.0032875,30.8051275 C35.0161875,30.7352525 35.0269375,30.6589275 35.0312375,30.5793775 C35.0366125,30.4987525 35.0409125,30.4181275 35.0409125,30.3461025 C35.0409125,30.2697775 35.0366125,30.1913025 35.0312375,30.1149775 C35.0269375,30.0343525 35.0161875,29.9634025 35.0032875,29.8956775 L32.5791625,29.8956775 L32.5791625,27.7865275 L35.6106625,27.7865275 Z" id="Fill-40" fill="#1DAC89"></path>
                    <g id="Group-45" transform="translate(30.950000, 26.305500)">
                        <mask id="mask-15" fill="white">
                            <use xlink:href="#path-14"></use>
                        </mask>
                        <g id="Clip-43"></g>
                        <polygon id="Fill-42" fill="#1DAC89" mask="url(#mask-15)" points="-459.025 2159.675 197.614025 2159.675 197.614025 -2391.38372 -459.025 -2391.38372"></polygon>
                        <polygon id="Fill-44" fill="#1DAC89" mask="url(#mask-15)" points="-2.16075 10.656475 7.511025 10.656475 7.511025 -2.16075 -2.16075 -2.16075"></polygon>
                    </g>
                    <path d="M33.7685425,8.802995 C33.7416675,8.88362 33.6513675,8.936295 33.5664425,8.91802 C33.5481675,8.91802 32.3334175,8.658945 30.4532425,8.658945 C29.3158925,8.658945 28.1624175,8.757845 27.0401175,8.942745 C23.3528675,9.546895 21.0502175,11.073395 21.0254925,11.086295 C20.9910925,11.107795 20.9599175,11.114245 20.9265925,11.114245 C20.8760675,11.114245 20.8276925,11.099195 20.7922175,11.05512 C20.7287925,10.98847 20.7287925,10.890645 20.7922175,10.82292 C20.8233925,10.791745 23.9183175,7.46032 28.7472175,7.46032 C30.3747675,7.46032 32.0388675,7.83872 33.6760925,8.58477 C33.7556425,8.624545 33.7997175,8.71807 33.7685425,8.802995 M38.3974925,9.695245 C34.4264425,5.565095 29.4921925,4.535245 25.6415425,5.261945 C22.6412175,5.823095 21.0749425,7.43022 19.6570175,9.015845 C17.7284675,11.16692 15.5580425,10.550945 15.5580425,10.550945 C15.5580425,10.550945 16.2449675,11.277645 18.8066925,12.97722 C20.6126925,14.17262 22.8949175,14.42632 25.2083175,14.311295 C30.9907425,14.02212 34.3189425,7.018495 38.5866925,13.231995 C40.4077425,15.880795 41.4633925,19.082145 41.4633925,22.52537 C41.4633925,31.672545 33.9620425,39.08897 24.7148925,39.08897 L24.4730175,39.08897 C15.0936425,39.08897 7.4890925,31.203845 7.4890925,21.48262 C7.4890925,12.83317 13.5026425,5.648945 21.4243175,4.156845 C12.5781425,5.69517 5.8529425,13.32982 5.8529425,22.52537 C5.8529425,32.82387 14.2970675,41.17662 24.7148925,41.17662 C35.1337925,41.17662 43.5789925,32.82387 43.5789925,22.52537 C43.5789925,17.55242 41.6095925,13.036345 38.3974925,9.695245" id="Fill-46" fill="#1DAC89"></path>
                    <g id="Group-51" transform="translate(5.150000, 3.730500)">
                        <mask id="mask-17" fill="white">
                            <use xlink:href="#path-16"></use>
                        </mask>
                        <g id="Clip-49"></g>
                        <polygon id="Fill-48" fill="#1DAC89" mask="url(#mask-17)" points="-433.225 2182.25 223.414025 2182.25 223.414025 -2368.80872 -433.225 -2368.80872"></polygon>
                        <polygon id="Fill-50" fill="#1DAC89" mask="url(#mask-17)" points="-2.032825 40.18135 41.164975 40.18135 41.164975 -2.310175 -2.032825 -2.310175"></polygon>
                    </g>
                </g>
            </g>
        </g>
    </g>
</svg>